#N canvas 192 25 1248 764 12;
#X obj 163 507 s reled;
#X obj 521 483 s rec-en;
#X obj 510 295 t b b b b;
#X obj 453 519 s reled;
#X msg 521 452 0;
#X obj 586 370 delay 100;
#X obj 257 85 inlet;
#X obj 272 467 s t\$1stop;
#X obj 252 500 s t\$1rec;
#X obj 604 345 s t\$1stop;
#X obj 586 401 s t\$1play;
#X obj 288 142 v t\$1rec-status;
#X obj 224 307 v rec-en;
#X obj 224 331 == \$1;
#X obj 223 366 sel 1;
#X obj 212 415 t b b b;
#X obj 520 400 v rec-en;
#X obj 520 424 == \$1;
#X obj 504 80 inlet;
#X obj 535 137 v t\$1rec-status;
#X obj 530 200 sel 1;
#X obj 287 205 sel 0;
#X connect 2 0 3 0;
#X connect 2 1 16 0;
#X connect 2 2 5 0;
#X connect 2 3 9 0;
#X connect 4 0 1 0;
#X connect 5 0 10 0;
#X connect 6 0 11 0;
#X connect 11 0 21 0;
#X connect 12 0 13 0;
#X connect 13 0 14 0;
#X connect 14 0 15 0;
#X connect 15 0 0 0;
#X connect 15 1 8 0;
#X connect 15 2 7 0;
#X connect 16 0 17 0;
#X connect 17 0 4 0;
#X connect 18 0 19 0;
#X connect 19 0 20 0;
#X connect 20 0 2 0;
#X connect 21 0 12 0;
