#N canvas 282 58 1021 642 12;
#X obj 269 436 readsf~;
#X msg 127 178 1;
#X msg 426 346 0;
#X obj 127 148 delay 5;
#X obj 366 529 spigot;
#X obj 435 317 t b b;
#X msg 461 347 0;
#X msg 195 177 1;
#X obj 194 147 delay 10;
#X obj 497 380 sig~;
#X obj 492 407 lop~ 10;
#X obj 294 511 *~;
#X obj 250 14 r t\$1play;
#X obj 501 350 r t\$1_vol;
#X obj 371 555 s t\$1play;
#X obj 241 611 outlet~;
#X msg 297 316 open \$1/\$2;
#X obj 297 292 pack s s;
#X obj 302 143 v cursong;
#X obj 345 230 symbol \$1.wav;
#X obj 297 102 t b b;
#X obj 228 72 t b b b;
#X obj 575 82 r t\$1stop;
#X obj 590 107 r stop-all;
#X msg 305 170 symbol /sdcard/songs/\$1;
#X connect 0 0 11 0;
#X connect 0 1 4 0;
#X connect 1 0 0 0;
#X connect 2 0 0 0;
#X connect 3 0 1 0;
#X connect 4 0 14 0;
#X connect 5 0 2 0;
#X connect 5 1 6 0;
#X connect 6 0 4 1;
#X connect 7 0 4 1;
#X connect 8 0 7 0;
#X connect 9 0 10 0;
#X connect 10 0 11 1;
#X connect 11 0 15 0;
#X connect 12 0 21 0;
#X connect 13 0 9 0;
#X connect 16 0 0 0;
#X connect 17 0 16 0;
#X connect 18 0 24 0;
#X connect 19 0 17 1;
#X connect 20 0 18 0;
#X connect 20 1 19 0;
#X connect 21 0 3 0;
#X connect 21 1 8 0;
#X connect 21 2 20 0;
#X connect 22 0 5 0;
#X connect 23 0 5 0;
#X connect 24 0 17 0;
