#N canvas 113 120 778 608 12;
#X msg 244 324 start;
#X msg 197 300 stop;
#X obj 195 509 writesf~ 1;
#X obj 247 277 delay 5;
#X obj 242 196 delay 10;
#X obj 43 231 inlet~;
#X obj 246 31 r t\$1rec;
#X msg 328 441 open \$1/\$2;
#X obj 332 403 pack s s;
#X obj 341 315 v cursong;
#X obj 380 370 symbol \$1.wav;
#X obj 336 274 t b b;
#X obj 306 520 print \$1rec;
#X obj 247 246 t b b;
#X text 315 183 this ensures recorded track lines up with playing tracks
, f 23;
#X obj 246 70 t b b;
#X msg 532 229 1;
#X obj 65 88 r t\$1stop;
#X obj 19 138 t b b;
#X obj 532 261 s t\$1rec-status;
#X obj 14 195 s t\$1rec-status;
#X msg 14 167 0;
#X msg 525 86 0;
#X obj 540 148 v t\$1rec-status;
#X obj 496 40 loadbang;
#X obj 148 151 r stop-all;
#X msg 344 342 symbol /sdcard/songs/\$1;
#X connect 0 0 2 0;
#X connect 1 0 2 0;
#X connect 3 0 0 0;
#X connect 4 0 13 0;
#X connect 5 0 2 0;
#X connect 6 0 15 0;
#X connect 7 0 2 0;
#X connect 7 0 12 0;
#X connect 8 0 7 0;
#X connect 9 0 26 0;
#X connect 10 0 8 1;
#X connect 11 0 9 0;
#X connect 11 1 10 0;
#X connect 13 0 3 0;
#X connect 13 1 11 0;
#X connect 15 0 4 0;
#X connect 15 1 16 0;
#X connect 16 0 19 0;
#X connect 17 0 18 0;
#X connect 18 0 21 0;
#X connect 18 1 1 0;
#X connect 21 0 20 0;
#X connect 22 0 23 0;
#X connect 24 0 22 0;
#X connect 25 0 1 0;
#X connect 26 0 8 0;
