#N canvas 310 116 1580 680 10;
#X msg 364 542 start;
#X obj 281 696 writesf~ 1;
#X obj 49 209 inlet~;
#X obj 359 158 r t\$1rec;
#X msg 521 563 open \$1/\$2;
#X obj 525 525 pack s s;
#X obj 518 439 v cursong;
#X obj 573 492 symbol \$1.wav;
#X obj 368 274 t b b;
#X text 407 384 this ensures recorded track lines up with playing tracks
, f 16;
#X obj 359 197 t b b;
#X obj 159 231 r t\$1stop;
#X msg 71 486 0;
#X obj 249 223 r stop-all;
#X msg 521 466 symbol /sdcard/songs/\$1;
#X obj 351 403 delay 15;
#X obj 969 555 readsf~;
#X msg 827 297 1;
#X msg 1126 465 0;
#X obj 827 267 delay 5;
#X obj 1090 739 spigot;
#X msg 1161 466 0;
#X msg 895 296 1;
#X obj 1197 542 sig~;
#X obj 1192 569 lop~ 10;
#X obj 994 630 *~;
#X obj 950 133 r t\$1play;
#X obj 1201 469 r t\$1_vol;
#X obj 1095 765 s t\$1play;
#X obj 941 730 outlet~;
#X msg 988 455 open \$1/\$2;
#X obj 997 386 pack s s;
#X obj 980 290 v cursong;
#X obj 1045 349 symbol \$1.wav;
#X obj 980 264 t b b;
#X obj 1214 198 r t\$1stop;
#X obj 1229 223 r stop-all;
#X msg 983 317 symbol /sdcard/songs/\$1;
#X msg 1055 259 0;
#X msg 227 532 stop;
#X obj 285 403 s busy;
#X obj 1131 227 s busy;
#X obj 499 642 print t\$1-rec;
#X obj 894 266 delay 90;
#X obj 279 566 line~;
#X obj 1200 501 t f f;
#X obj 1200 522 *;
#X msg 272 533 0 5;
#X msg 312 535 1 5;
#X obj 458 -43 sel 0 1;
#X obj 458 -119 v rec-en;
#X obj 459 -90 == \$1;
#X obj 458 -158 r start-all;
#X obj 475 -14 s t\$1rec;
#X obj 457 11 s t\$1play;
#X obj 642 115 s rec-en;
#X obj 563 -60 t b b b b;
#X obj 520 116 s reled;
#X msg 642 84 0;
#X obj 565 14 delay 100;
#X obj 657 -22 s t\$1stop;
#X obj 565 39 s t\$1play;
#X obj 641 32 v rec-en;
#X obj 641 56 == \$1;
#X obj 565 -156 r stop-recording-and-play;
#X obj 758 150 s reled;
#X obj 824 148 s t\$1rec;
#X obj 813 -55 v rec-en;
#X obj 813 -31 == \$1;
#X obj 812 4 sel 1;
#X obj 801 53 t b b b;
#X obj 819 -152 r stop-playing-and-record;
#X obj 1071 695 spigot;
#X obj 1137 617 r loop-en;
#X obj 57 -71 loadbang;
#X obj 1232 333 folder_list;
#X msg 1231 305 symbol \$1/\$2;
#X obj 1234 358 t b;
#X msg 1234 379 1;
#X obj 928 191 t b b b b b b;
#X obj 991 426 t a a;
#X obj 57 -19 v t\$1status;
#X obj 1098 268 v t\$1status;
#X obj 1233 410 v t\$1status;
#X obj 1171 754 s t\$1done-playing;
#X obj 1290 781 v t\$1status;
#X msg 1290 754 0;
#X msg 599 351 2;
#X obj 599 383 s t\$1status;
#X obj 70 512 s t\$1status;
#X obj 1160 695 spigot;
#X obj 1176 662 == 0;
#X obj 1137 638 t a a;
#X obj 1056 652 t b b;
#X obj 1203 719 t b b;
#X obj 565 -125 v t\$1status;
#X obj 818 -122 v t\$1status;
#X obj 566 -96 sel 2;
#X text 1269 378 if we have a file \, we are playing;
#X text 891 -85 or if already stopped bc there is no file yet;
#X msg 57 -47 0;
#X obj 1017 593 spigot;
#X msg 1087 227 0;
#X text 1073 599 only output anything outta readsf if there is a file
;
#X text 141 -60 track status is 0: stopped \, 1 playing \, 2 recording
, f 28;
#X msg 333 375 stop;
#X obj 267 349 t b b b b;
#X obj 1135 436 t b b b;
#X msg 837 217 stop;
#X text 1209 638 loop on: play it again loop off: signal done;
#X obj 294 603 *~;
#X obj 252 649 *~;
#X obj 342 495 t b b;
#X obj 234 410 t b b;
#X obj 222 499 delay 6;
#X obj 815 -88 sel 1 0;
#X obj 197 119 writesf~;
#X msg 194 68 start;
#X msg 264 67 open /tmp/asdf.wav;
#X msg 96 69 stop;
#X obj 861 105 s t\$1stop-play;
#X obj 1200 171 r t\$1stop-play;
#X obj 529 396 t b b;
#X connect 0 0 1 0;
#X connect 2 0 111 0;
#X connect 3 0 10 0;
#X connect 4 0 1 0;
#X connect 4 0 42 0;
#X connect 5 0 4 0;
#X connect 6 0 14 0;
#X connect 7 0 5 1;
#X connect 8 0 15 0;
#X connect 8 1 122 0;
#X connect 10 0 8 0;
#X connect 10 1 87 0;
#X connect 11 0 106 0;
#X connect 12 0 89 0;
#X connect 13 0 106 0;
#X connect 14 0 5 0;
#X connect 15 0 112 0;
#X connect 16 0 25 0;
#X connect 16 1 101 0;
#X connect 17 0 16 0;
#X connect 18 0 16 0;
#X connect 19 0 17 0;
#X connect 20 0 28 0;
#X connect 21 0 20 1;
#X connect 22 0 20 1;
#X connect 23 0 24 0;
#X connect 24 0 25 1;
#X connect 25 0 29 0;
#X connect 26 0 79 0;
#X connect 27 0 45 0;
#X connect 30 0 16 0;
#X connect 31 0 80 0;
#X connect 32 0 37 0;
#X connect 33 0 31 1;
#X connect 34 0 32 0;
#X connect 34 1 33 0;
#X connect 35 0 107 0;
#X connect 36 0 107 0;
#X connect 37 0 31 0;
#X connect 38 0 20 1;
#X connect 39 0 1 0;
#X connect 43 0 22 0;
#X connect 44 0 110 1;
#X connect 44 0 110 0;
#X connect 45 0 46 0;
#X connect 45 1 46 1;
#X connect 46 0 23 0;
#X connect 47 0 44 0;
#X connect 48 0 44 0;
#X connect 49 0 54 0;
#X connect 49 1 53 0;
#X connect 50 0 51 0;
#X connect 51 0 49 0;
#X connect 52 0 50 0;
#X connect 56 0 57 0;
#X connect 56 1 59 0;
#X connect 56 2 62 0;
#X connect 56 3 60 0;
#X connect 58 0 55 0;
#X connect 59 0 61 0;
#X connect 62 0 63 0;
#X connect 63 0 58 0;
#X connect 64 0 95 0;
#X connect 67 0 68 0;
#X connect 68 0 69 0;
#X connect 69 0 70 0;
#X connect 70 0 65 0;
#X connect 70 1 66 0;
#X connect 70 2 120 0;
#X connect 71 0 96 0;
#X connect 72 0 20 0;
#X connect 73 0 92 0;
#X connect 74 0 100 0;
#X connect 75 0 77 0;
#X connect 76 0 75 0;
#X connect 77 0 78 0;
#X connect 78 0 83 0;
#X connect 78 0 101 1;
#X connect 79 0 19 0;
#X connect 79 1 43 0;
#X connect 79 2 34 0;
#X connect 79 3 38 0;
#X connect 79 4 102 0;
#X connect 79 5 41 0;
#X connect 80 0 30 0;
#X connect 80 1 76 0;
#X connect 86 0 85 0;
#X connect 87 0 88 0;
#X connect 90 0 94 0;
#X connect 91 0 90 1;
#X connect 92 0 72 1;
#X connect 92 1 91 0;
#X connect 93 0 72 0;
#X connect 93 1 90 0;
#X connect 94 0 84 0;
#X connect 94 1 86 0;
#X connect 95 0 97 0;
#X connect 96 0 115 0;
#X connect 97 0 56 0;
#X connect 100 0 81 0;
#X connect 101 0 93 0;
#X connect 102 0 82 0;
#X connect 105 0 15 0;
#X connect 106 0 12 0;
#X connect 106 1 113 0;
#X connect 106 2 40 0;
#X connect 106 3 105 0;
#X connect 107 0 18 0;
#X connect 107 1 21 0;
#X connect 107 2 108 0;
#X connect 108 0 43 0;
#X connect 108 0 19 0;
#X connect 110 0 111 1;
#X connect 111 0 1 0;
#X connect 112 0 48 0;
#X connect 112 1 0 0;
#X connect 113 0 114 0;
#X connect 113 1 47 0;
#X connect 114 0 39 0;
#X connect 115 0 67 0;
#X connect 115 1 67 0;
#X connect 117 0 116 0;
#X connect 118 0 116 0;
#X connect 119 0 116 0;
#X connect 121 0 107 0;
#X connect 122 0 6 0;
#X connect 122 1 7 0;
