#N canvas 63 88 1354 688 10;
#X msg 345 458 start;
#X obj 281 696 writesf~ 1;
#X obj 49 209 inlet~;
#X obj 359 158 r t\$1rec;
#X msg 521 563 open \$1/\$2;
#X obj 525 525 pack s s;
#X obj 518 439 v cursong;
#X obj 573 492 symbol \$1.wav;
#X obj 529 396 t b b;
#X obj 368 274 t b b;
#X text 409 387 this ensures recorded track lines up with playing tracks
, f 16;
#X obj 359 197 t b b;
#X msg 599 351 1;
#X obj 159 231 r t\$1stop;
#X obj 599 383 s t\$1rec-status;
#X obj 70 512 s t\$1rec-status;
#X msg 71 486 0;
#X msg 58 -135 0;
#X obj 58 -107 v t\$1rec-status;
#X obj 58 -159 loadbang;
#X obj 249 223 r stop-all;
#X msg 521 466 symbol /home/root/songs/\$1;
#X obj 351 403 delay 15;
#X obj 969 555 readsf~;
#X msg 827 297 1;
#X msg 1126 465 0;
#X obj 827 267 delay 5;
#X obj 1071 683 spigot;
#X obj 1135 436 t b b;
#X msg 1161 466 0;
#X msg 895 296 1;
#X obj 1197 542 sig~;
#X obj 1192 569 lop~ 10;
#X obj 994 630 *~;
#X obj 950 133 r t\$1play;
#X obj 1201 469 r t\$1_vol;
#X obj 1076 709 s t\$1play;
#X obj 941 730 outlet~;
#X msg 988 455 open \$1/\$2;
#X obj 997 386 pack s s;
#X obj 980 290 v cursong;
#X obj 1045 349 symbol \$1.wav;
#X obj 980 264 t b b;
#X obj 1214 198 r t\$1stop;
#X obj 1229 223 r stop-all;
#X msg 983 317 symbol /home/root/songs/\$1;
#X msg 1055 259 0;
#X msg 227 441 stop;
#X obj 267 349 t b b b;
#X obj 285 403 s busy;
#X obj 1131 227 s busy;
#X obj 874 617 print t$-1play;
#X obj 499 642 print t\$1-rec;
#X obj 894 266 delay 90;
#X obj 371 557 line~;
#X obj 1200 501 t f f;
#X obj 1200 522 *;
#X msg 376 516 0 5;
#X msg 410 517 1 5;
#X obj 231 -39 sel 0 1;
#X obj 231 -115 v rec-en;
#X obj 232 -86 == \$1;
#X obj 231 -154 r start-all;
#X obj 248 -10 s t\$1rec;
#X obj 230 15 s t\$1play;
#X obj 574 116 s rec-en;
#X obj 563 -60 t b b b b;
#X obj 520 116 s reled;
#X msg 574 85 0;
#X obj 639 3 delay 100;
#X obj 657 -22 s t\$1stop;
#X obj 639 28 s t\$1play;
#X obj 573 33 v rec-en;
#X obj 573 57 == \$1;
#X obj 565 -125 v t\$1rec-status;
#X obj 566 -96 sel 1;
#X obj 565 -156 r stop-recording-and-play;
#X obj 780 136 s reled;
#X obj 861 105 s t\$1stop;
#X obj 841 138 s t\$1rec;
#X obj 818 -122 v t\$1rec-status;
#X obj 813 -55 v rec-en;
#X obj 813 -31 == \$1;
#X obj 812 4 sel 1;
#X obj 801 53 t b b b;
#X obj 815 -88 sel 0;
#X obj 819 -152 r stop-playing-and-record;
#X obj 1047 642 spigot;
#X obj 1061 536 r loop-en;
#X obj 1131 620 s t\$1done;
#X obj 1022 580 t b b;
#X msg 57 -47 0;
#X obj 57 -71 loadbang;
#X obj 57 -19 v t\$1exists;
#X obj 1232 333 folder_list;
#X msg 1231 305 symbol \$1/\$2;
#X obj 1234 358 t b;
#X msg 1234 379 1;
#X obj 1233 410 v t\$1exists;
#X obj 928 191 t b b b b b b;
#X msg 1087 227 0;
#X obj 1098 268 v t\$1exists;
#X obj 991 426 t a a;
#X connect 0 0 1 0;
#X connect 2 0 1 0;
#X connect 3 0 11 0;
#X connect 4 0 1 0;
#X connect 4 0 52 0;
#X connect 5 0 4 0;
#X connect 6 0 21 0;
#X connect 7 0 5 1;
#X connect 8 0 6 0;
#X connect 8 1 7 0;
#X connect 9 0 22 0;
#X connect 9 1 8 0;
#X connect 11 0 9 0;
#X connect 11 1 12 0;
#X connect 12 0 14 0;
#X connect 13 0 48 0;
#X connect 16 0 15 0;
#X connect 17 0 18 0;
#X connect 19 0 17 0;
#X connect 20 0 48 0;
#X connect 21 0 5 0;
#X connect 22 0 0 0;
#X connect 23 0 33 0;
#X connect 23 1 51 0;
#X connect 23 1 90 0;
#X connect 24 0 23 0;
#X connect 25 0 23 0;
#X connect 26 0 24 0;
#X connect 27 0 36 0;
#X connect 28 0 25 0;
#X connect 28 1 29 0;
#X connect 29 0 27 1;
#X connect 30 0 27 1;
#X connect 31 0 32 0;
#X connect 32 0 33 1;
#X connect 33 0 37 0;
#X connect 34 0 99 0;
#X connect 35 0 55 0;
#X connect 38 0 23 0;
#X connect 39 0 102 0;
#X connect 40 0 45 0;
#X connect 41 0 39 1;
#X connect 42 0 40 0;
#X connect 42 1 41 0;
#X connect 43 0 28 0;
#X connect 44 0 28 0;
#X connect 45 0 39 0;
#X connect 46 0 27 1;
#X connect 47 0 1 0;
#X connect 48 0 16 0;
#X connect 48 1 47 0;
#X connect 48 2 49 0;
#X connect 53 0 30 0;
#X connect 55 0 56 0;
#X connect 55 1 56 1;
#X connect 56 0 31 0;
#X connect 59 0 64 0;
#X connect 59 1 63 0;
#X connect 60 0 61 0;
#X connect 61 0 59 0;
#X connect 62 0 60 0;
#X connect 66 0 67 0;
#X connect 66 1 72 0;
#X connect 66 2 69 0;
#X connect 66 3 70 0;
#X connect 68 0 65 0;
#X connect 69 0 71 0;
#X connect 72 0 73 0;
#X connect 73 0 68 0;
#X connect 74 0 75 0;
#X connect 75 0 66 0;
#X connect 76 0 74 0;
#X connect 80 0 85 0;
#X connect 81 0 82 0;
#X connect 82 0 83 0;
#X connect 83 0 84 0;
#X connect 84 0 77 0;
#X connect 84 1 79 0;
#X connect 84 2 78 0;
#X connect 85 0 81 0;
#X connect 86 0 80 0;
#X connect 87 0 27 0;
#X connect 88 0 87 1;
#X connect 90 0 87 0;
#X connect 90 1 89 0;
#X connect 91 0 93 0;
#X connect 92 0 91 0;
#X connect 94 0 96 0;
#X connect 95 0 94 0;
#X connect 96 0 97 0;
#X connect 97 0 98 0;
#X connect 99 0 26 0;
#X connect 99 1 53 0;
#X connect 99 2 42 0;
#X connect 99 3 46 0;
#X connect 99 4 100 0;
#X connect 99 5 50 0;
#X connect 100 0 101 0;
#X connect 102 0 38 0;
#X connect 102 1 95 0;
