#N canvas 63 88 1354 688 10;
#X msg 339 336 start;
#X obj 275 574 writesf~ 1;
#X obj 43 87 inlet~;
#X obj 353 36 r t\$1rec;
#X msg 515 441 open \$1/\$2;
#X obj 519 403 pack s s;
#X obj 512 317 v cursong;
#X obj 567 370 symbol \$1.wav;
#X obj 523 274 t b b;
#X obj 362 152 t b b;
#X text 403 265 this ensures recorded track lines up with playing tracks
, f 16;
#X obj 353 75 t b b;
#X msg 593 229 1;
#X obj 153 109 r t\$1stop;
#X obj 593 261 s t\$1rec-status;
#X obj 64 390 s t\$1rec-status;
#X msg 65 364 0;
#X msg 625 60 0;
#X obj 625 88 v t\$1rec-status;
#X obj 625 36 loadbang;
#X obj 243 101 r stop-all;
#X msg 515 344 symbol /home/root/songs/\$1;
#X obj 345 281 delay 15;
#X obj 963 433 readsf~;
#X msg 821 175 1;
#X msg 1120 343 0;
#X obj 821 145 delay 5;
#X obj 1060 526 spigot;
#X obj 1129 314 t b b;
#X msg 1155 344 0;
#X msg 889 174 1;
#X obj 1191 420 sig~;
#X obj 1186 447 lop~ 10;
#X obj 988 508 *~;
#X obj 944 11 r t\$1play;
#X obj 1195 347 r t\$1_vol;
#X obj 1065 552 s t\$1play;
#X obj 935 608 outlet~;
#X msg 991 288 open \$1/\$2;
#X obj 991 264 pack s s;
#X obj 974 168 v cursong;
#X obj 1039 227 symbol \$1.wav;
#X obj 974 142 t b b;
#X obj 1208 76 r t\$1stop;
#X obj 1223 101 r stop-all;
#X msg 977 195 symbol /home/root/songs/\$1;
#X msg 1119 139 0;
#X msg 221 319 stop;
#X obj 261 227 t b b b;
#X obj 279 281 s busy;
#X obj 922 69 t b b b b b;
#X obj 1106 106 s busy;
#X obj 868 495 print t$-1play;
#X obj 493 520 print t\$1-rec;
#X obj 888 144 delay 90;
#X obj 365 435 line~;
#X obj 1194 379 t f f;
#X obj 1194 400 *;
#X msg 370 394 0 5;
#X msg 404 395 1 5;
#X connect 0 0 1 0;
#X connect 2 0 1 0;
#X connect 3 0 11 0;
#X connect 4 0 1 0;
#X connect 4 0 53 0;
#X connect 5 0 4 0;
#X connect 6 0 21 0;
#X connect 7 0 5 1;
#X connect 8 0 6 0;
#X connect 8 1 7 0;
#X connect 9 0 22 0;
#X connect 9 1 8 0;
#X connect 11 0 9 0;
#X connect 11 1 12 0;
#X connect 12 0 14 0;
#X connect 13 0 48 0;
#X connect 16 0 15 0;
#X connect 17 0 18 0;
#X connect 19 0 17 0;
#X connect 20 0 48 0;
#X connect 21 0 5 0;
#X connect 22 0 0 0;
#X connect 23 0 33 0;
#X connect 23 1 27 0;
#X connect 23 1 52 0;
#X connect 24 0 23 0;
#X connect 25 0 23 0;
#X connect 26 0 24 0;
#X connect 27 0 36 0;
#X connect 28 0 25 0;
#X connect 28 1 29 0;
#X connect 29 0 27 1;
#X connect 30 0 27 1;
#X connect 31 0 32 0;
#X connect 32 0 33 1;
#X connect 33 0 37 0;
#X connect 34 0 50 0;
#X connect 35 0 56 0;
#X connect 38 0 23 0;
#X connect 39 0 38 0;
#X connect 40 0 45 0;
#X connect 41 0 39 1;
#X connect 42 0 40 0;
#X connect 42 1 41 0;
#X connect 43 0 28 0;
#X connect 44 0 28 0;
#X connect 45 0 39 0;
#X connect 46 0 27 1;
#X connect 47 0 1 0;
#X connect 48 0 16 0;
#X connect 48 1 47 0;
#X connect 48 2 49 0;
#X connect 50 0 26 0;
#X connect 50 1 54 0;
#X connect 50 2 42 0;
#X connect 50 3 46 0;
#X connect 50 4 51 0;
#X connect 54 0 30 0;
#X connect 56 0 57 0;
#X connect 56 1 57 1;
#X connect 57 0 31 0;
