#N canvas 239 50 821 778 10;
#X declare -path lib;
#X obj 175 351 adc~;
#X obj 191 430 dac~;
#N canvas 47 383 703 328 init 0;
#X obj 168 19 loadbang;
#X msg 148 124 \; pd dsp 1;
#X obj 424 104 s osc-init;
#X obj 168 46 t b b;
#X connect 0 0 3 0;
#X connect 3 0 1 0;
#X connect 3 1 2 0;
#X restore 139 29 pd init;
#N canvas 96 158 1032 611 osc 0;
#N canvas 313 299 485 364 oscio 0;
#X obj 95 174 packOSC;
#X obj 252 154 udpreceive;
#X obj 252 176 unpackOSC;
#X obj 252 204 s oscIn;
#X obj 95 149 r oscOut;
#X msg 70 119 connect localhost 4001;
#X msg 252 124 port 4000;
#X obj 70 247 s udp-connected;
#X obj 70 209 udpsend;
#X obj 181 30 r osc-init, f 11;
#X obj 167 229 print udp;
#X connect 0 0 8 0;
#X connect 1 0 2 0;
#X connect 2 0 3 0;
#X connect 4 0 0 0;
#X connect 5 0 8 0;
#X connect 6 0 1 0;
#X connect 8 0 7 0;
#X connect 8 0 10 0;
#X connect 9 0 5 0;
#X connect 9 0 6 0;
#X restore 53 19 pd oscio;
#X obj 78 55 r oscIn;
#X obj 165 351 s knob1;
#X obj 165 320 / 255;
#X obj 302 319 / 255;
#X obj 439 317 / 255;
#X obj 302 348 s knob2;
#X obj 439 346 s knob3;
#X obj 575 345 s knob4;
#X obj 575 315 / 255;
#X obj 712 314 / 255;
#X obj 845 311 / 255;
#X obj 712 344 s knob5;
#X obj 845 341 s knob6;
#X obj 35 473 s key1;
#X obj 146 476 s key3;
#X obj 89 473 s key2;
#X obj 199 477 s key4;
#X obj 254 478 s key5;
#X obj 306 485 s key6;
#X obj 360 479 s key7;
#X obj 415 487 s key8;
#X obj 165 278 unpack 0 0 0 0 0 0, f 98;
#X obj 35 385 route 0 1 2 3 4 5 6 7 12 11 10 9 8, f 101;
#X obj 474 482 s key9;
#X obj 530 480 s key10;
#X obj 589 479 s key11;
#X obj 645 480 s key12;
#X obj 711 481 s key13;
#X obj 298 143 sel 1;
#X obj 285 203 delay 100;
#X msg 285 225 \; pd quit;
#X obj 76 103 routeOSC /key /knobs /quitpd;
#X obj 298 165 t b b b;
#X obj 506 206 print quitting;
#X obj 379 206 s stop;
#X text 420 157 stop all and then quit;
#X connect 1 0 32 0;
#X connect 3 0 2 0;
#X connect 4 0 6 0;
#X connect 5 0 7 0;
#X connect 9 0 8 0;
#X connect 10 0 12 0;
#X connect 11 0 13 0;
#X connect 22 0 3 0;
#X connect 22 1 4 0;
#X connect 22 2 5 0;
#X connect 22 3 9 0;
#X connect 22 4 10 0;
#X connect 22 5 11 0;
#X connect 23 0 14 0;
#X connect 23 1 16 0;
#X connect 23 2 15 0;
#X connect 23 3 17 0;
#X connect 23 4 18 0;
#X connect 23 5 19 0;
#X connect 23 6 20 0;
#X connect 23 7 21 0;
#X connect 23 8 24 0;
#X connect 23 9 25 0;
#X connect 23 10 26 0;
#X connect 23 11 27 0;
#X connect 23 12 28 0;
#X connect 29 0 33 0;
#X connect 30 0 31 0;
#X connect 32 0 23 0;
#X connect 32 1 22 0;
#X connect 32 2 29 0;
#X connect 33 0 30 0;
#X connect 33 1 35 0;
#X connect 33 2 34 0;
#X restore 139 50 pd osc;
#X obj 27 29 declare -path lib;
#N canvas 125 349 1019 440 leds 0;
#X obj 462 48 array define led1 3;
#X obj 462 70 array define led2 3;
#X obj 462 93 array define led3 3;
#X obj 462 115 array define led4 3;
#X obj 462 138 array define led5 3;
#N canvas 128 142 991 503 test 0;
#X obj 376 314 s oscOut;
#X msg 377 293 send /leds \$1 \$2 \$3 \$4 \$5 \$6 \$7 \$8 \$9 \$10
\$11 \$12 \$13 \$14 \$15, f 65;
#X obj 385 254 pack 0 0 0 0 0 0 0 0 0 0 0 0 0 0 0;
#X obj 385 161 random 255;
#X obj 454 161 random 255;
#X obj 522 161 random 255;
#X obj 589 161 random 255;
#X obj 658 161 random 255;
#X obj 400 184 random 255;
#X obj 469 184 random 255;
#X obj 537 184 random 255;
#X obj 604 184 random 255;
#X obj 673 184 random 255;
#X obj 425 207 random 255;
#X obj 494 207 random 255;
#X obj 562 207 random 255;
#X obj 629 207 random 255;
#X obj 696 207 random 255;
#X obj 384 89 t b b b b b b b b b b b b b b b, f 53;
#X obj 368 43 metro 250;
#X obj 251 13 loadbang;
#X connect 1 0 0 0;
#X connect 2 0 1 0;
#X connect 3 0 2 0;
#X connect 4 0 2 3;
#X connect 5 0 2 6;
#X connect 6 0 2 9;
#X connect 7 0 2 12;
#X connect 8 0 2 1;
#X connect 9 0 2 4;
#X connect 10 0 2 7;
#X connect 11 0 2 10;
#X connect 12 0 2 13;
#X connect 13 0 2 2;
#X connect 14 0 2 5;
#X connect 15 0 2 8;
#X connect 16 0 2 11;
#X connect 17 0 2 14;
#X connect 18 0 3 0;
#X connect 18 1 8 0;
#X connect 18 2 13 0;
#X connect 18 3 4 0;
#X connect 18 4 9 0;
#X connect 18 5 14 0;
#X connect 18 6 5 0;
#X connect 18 7 10 0;
#X connect 18 8 15 0;
#X connect 18 9 6 0;
#X connect 18 10 11 0;
#X connect 18 11 16 0;
#X connect 18 12 7 0;
#X connect 18 13 12 0;
#X connect 18 14 17 0;
#X connect 19 0 18 0;
#X connect 20 0 19 0;
#X restore 265 102 pd test;
#X obj 588 179 r led-flip;
#X obj 431 263 array get led1;
#X obj 588 200 t b b b b b;
#X obj 529 264 array get led2;
#X obj 631 263 array get led3;
#X obj 728 263 array get led4;
#X obj 824 264 array get led5;
#X obj 430 290 unpack 0 0 0;
#X obj 529 290 unpack 0 0 0;
#X obj 631 289 unpack 0 0 0;
#X obj 728 289 unpack 0 0 0;
#X obj 824 288 unpack 0 0 0;
#X obj 429 322 pack 0 0 0 0 0 0 0 0 0 0 0 0 0 0 0, f 78;
#X obj 427 367 s oscOut;
#X msg 428 346 send /leds \$1 \$2 \$3 \$4 \$5 \$6 \$7 \$8 \$9 \$10
\$11 \$12 \$13 \$14 \$15, f 65;
#N canvas 585 50 450 300 ledall 0;
#X obj 64 37 r ledall;
#X obj 64 65 t a a a a a, f 32;
#X obj 27 110 s led1-set;
#X obj 102 109 s led2-set;
#X obj 177 116 s led3-set;
#X obj 254 113 s led4-set;
#X obj 331 115 s led5-set;
#X connect 0 0 1 0;
#X connect 1 0 2 0;
#X connect 1 1 3 0;
#X connect 1 2 4 0;
#X connect 1 3 5 0;
#X connect 1 4 6 0;
#X restore 604 62 pd ledall;
#X obj 703 75 array set led1;
#X obj 703 52 r led1-set;
#X obj 704 94 r led2-set;
#X obj 704 117 array set led2;
#X obj 703 138 r led3-set;
#X obj 703 161 array set led3;
#X obj 798 51 r led4-set;
#X obj 798 74 array set led4;
#X obj 801 93 r led5-set;
#X obj 801 116 array set led5;
#X connect 6 0 8 0;
#X connect 7 0 13 0;
#X connect 8 0 7 0;
#X connect 8 1 9 0;
#X connect 8 2 10 0;
#X connect 8 3 11 0;
#X connect 8 4 12 0;
#X connect 9 0 14 0;
#X connect 10 0 15 0;
#X connect 11 0 16 0;
#X connect 12 0 17 0;
#X connect 13 0 18 0;
#X connect 13 1 18 1;
#X connect 13 2 18 2;
#X connect 14 0 18 3;
#X connect 14 1 18 4;
#X connect 14 2 18 5;
#X connect 15 0 18 6;
#X connect 15 1 18 7;
#X connect 15 2 18 8;
#X connect 16 0 18 9;
#X connect 16 1 18 10;
#X connect 16 2 18 11;
#X connect 17 0 18 12;
#X connect 17 1 18 13;
#X connect 17 2 18 14;
#X connect 18 0 20 0;
#X connect 20 0 19 0;
#X connect 23 0 22 0;
#X connect 24 0 25 0;
#X connect 26 0 27 0;
#X connect 28 0 29 0;
#X connect 30 0 31 0;
#X restore 139 72 pd leds;
#X obj 1061 536 r loop-en;
