#N canvas 239 50 982 770 10;
#X declare -path lib;
#X obj 115 348 adc~;
#X obj 170 428 dac~;
#N canvas 47 383 703 328 init 0;
#X obj 168 19 loadbang;
#X msg 148 124 \; pd dsp 1;
#X obj 424 104 s osc-init;
#X obj 168 46 t b b;
#X connect 0 0 3 0;
#X connect 3 0 1 0;
#X connect 3 1 2 0;
#X restore 139 29 pd init;
#N canvas 96 158 1032 611 osc 0;
#N canvas 313 299 485 364 oscio 0;
#X obj 95 174 packOSC;
#X obj 252 154 udpreceive;
#X obj 252 176 unpackOSC;
#X obj 252 204 s oscIn;
#X obj 95 149 r oscOut;
#X msg 70 119 connect localhost 4001;
#X msg 252 124 port 4000;
#X obj 70 247 s udp-connected;
#X obj 70 209 udpsend;
#X obj 181 30 r osc-init, f 11;
#X obj 167 229 print udp;
#X connect 0 0 8 0;
#X connect 1 0 2 0;
#X connect 2 0 3 0;
#X connect 4 0 0 0;
#X connect 5 0 8 0;
#X connect 6 0 1 0;
#X connect 8 0 7 0;
#X connect 8 0 10 0;
#X connect 9 0 5 0;
#X connect 9 0 6 0;
#X restore 53 19 pd oscio;
#X obj 78 55 r oscIn;
#X obj 165 351 s knob1;
#X obj 165 320 / 255;
#X obj 302 319 / 255;
#X obj 439 317 / 255;
#X obj 302 348 s knob2;
#X obj 439 346 s knob3;
#X obj 575 345 s knob4;
#X obj 575 315 / 255;
#X obj 712 314 / 255;
#X obj 845 311 / 255;
#X obj 712 344 s knob5;
#X obj 845 341 s knob6;
#X obj 35 473 s key1;
#X obj 146 476 s key3;
#X obj 89 473 s key2;
#X obj 199 477 s key4;
#X obj 254 478 s key5;
#X obj 306 485 s key6;
#X obj 360 479 s key7;
#X obj 415 487 s key8;
#X obj 165 278 unpack 0 0 0 0 0 0, f 98;
#X obj 35 385 route 0 1 2 3 4 5 6 7 12 11 10 9 8, f 101;
#X obj 474 482 s key9;
#X obj 530 480 s key10;
#X obj 589 479 s key11;
#X obj 645 480 s key12;
#X obj 711 481 s key13;
#X obj 298 143 sel 1;
#X obj 285 203 delay 100;
#X msg 285 225 \; pd quit;
#X obj 76 103 routeOSC /key /knobs /quitpd;
#X obj 298 165 t b b b;
#X obj 506 206 print quitting;
#X obj 379 206 s stop;
#X text 420 157 stop all and then quit;
#X obj 523 92;
#X obj 523 113;
#X connect 1 0 32 0;
#X connect 3 0 2 0;
#X connect 4 0 6 0;
#X connect 5 0 7 0;
#X connect 9 0 8 0;
#X connect 10 0 12 0;
#X connect 11 0 13 0;
#X connect 22 0 3 0;
#X connect 22 1 4 0;
#X connect 22 2 5 0;
#X connect 22 3 9 0;
#X connect 22 4 10 0;
#X connect 22 5 11 0;
#X connect 23 0 14 0;
#X connect 23 1 16 0;
#X connect 23 2 15 0;
#X connect 23 3 17 0;
#X connect 23 4 18 0;
#X connect 23 5 19 0;
#X connect 23 6 20 0;
#X connect 23 7 21 0;
#X connect 23 8 24 0;
#X connect 23 9 25 0;
#X connect 23 10 26 0;
#X connect 23 11 27 0;
#X connect 23 12 28 0;
#X connect 29 0 33 0;
#X connect 30 0 31 0;
#X connect 32 0 23 0;
#X connect 32 1 22 0;
#X connect 32 2 29 0;
#X connect 33 0 30 0;
#X connect 33 1 35 0;
#X connect 33 2 34 0;
#X connect 37 0 38 0;
#X restore 139 50 pd osc;
#X obj 27 29 declare -path lib;
#X obj 1061 536 r loop-en;
#X obj 377 326 s oscOut;
#X obj 383 22 loadbang;
#X msg 357 219 send /leds 10 0 0 10 0 0 10 0 0 10 0 0 10 0 0, f 47
;
#X obj 383 51 metro 555;
#X obj 366 105 i;
#X obj 366 126 + 1;
#X obj 366 149 % 3;
#X obj 366 170 sel 0 1 2;
#X msg 396 264 send /leds 0 0 10 0 0 10 0 0 10 0 0 10 0 0 10, f 47
;
#X msg 376 241 send /leds 0 10 0 0 10 0 0 10 0 0 10 0 0 10 0, f 47
;
#X obj 209 299 catch~ out;
#X obj 357 374 test-key key1 500;
#X obj 358 398 test-key key2 500;
#X obj 359 423 test-key key3 500;
#X obj 357 452 test-key key5 500;
#X obj 356 476 test-key key6 500;
#X obj 356 499 test-key key7 500;
#X obj 356 523 test-key key8 500;
#X obj 178 390 *~ 0.1;
#X obj 549 393 knob-test knob1 key9;
#X obj 548 416 knob-test knob2 key10;
#X obj 548 440 knob-test knob3 key11;
#X obj 549 462 knob-test knob4 key12;
#X obj 549 484 knob-test knob5 key13;
#X obj 552 505 knob-test knob6 key4;
#X connect 0 0 1 0;
#X connect 0 0 1 1;
#X connect 7 0 9 0;
#X connect 8 0 6 0;
#X connect 9 0 10 0;
#X connect 10 0 11 0;
#X connect 11 0 10 1;
#X connect 11 0 12 0;
#X connect 12 0 13 0;
#X connect 13 0 8 0;
#X connect 13 1 15 0;
#X connect 13 2 14 0;
#X connect 14 0 6 0;
#X connect 15 0 6 0;
#X connect 16 0 24 0;
#X connect 24 0 1 0;
#X connect 24 0 1 1;
