#N canvas 1193 100 450 377 10;
#X obj 139 248 *~;
#X obj 198 190 line~;
#X obj 187 214 *~;
#X msg 180 156 1 10;
#X msg 225 155 0 200;
#X obj 139 278 throw~ out;
#X obj 207 42 r \$1;
#X obj 113 84 osc~ \$2;
#X obj 207 63 sel 1 0;
#X connect 0 0 5 0;
#X connect 1 0 2 1;
#X connect 1 0 2 0;
#X connect 2 0 0 1;
#X connect 3 0 1 0;
#X connect 4 0 1 0;
#X connect 6 0 8 0;
#X connect 7 0 0 0;
#X connect 8 0 3 0;
#X connect 8 1 4 0;
