#N canvas 540 25 521 663 10;
#X declare -path lib;
#N canvas 286 29 819 572 track-it 0;
#X obj 373 475 outlet~;
#X obj 308 333 player 2;
#X obj 387 335 player 3;
#X obj 479 337 player 4;
#X obj 567 337 player 5;
#X obj 209 267 recorder 1;
#X obj 334 151 inlet~;
#X obj 307 265 recorder 2;
#X obj 399 267 recorder 3;
#X obj 491 270 recorder 4;
#X obj 580 272 recorder 5;
#X obj 212 332 player 1;
#X connect 1 0 0 0;
#X connect 2 0 0 0;
#X connect 3 0 0 0;
#X connect 4 0 0 0;
#X connect 6 0 5 0;
#X connect 6 0 7 0;
#X connect 6 0 9 0;
#X connect 6 0 8 0;
#X connect 6 0 10 0;
#X connect 11 0 0 0;
#X restore 163 362 pd track-it;
#X obj 170 255 adc~;
#X obj 272 467 dac~;
#X obj 291 280 sel 1;
#X obj 291 305 tgl 15 0 empty empty empty 17 7 0 10 #fcfcfc #000000
#000000 0 1;
#X obj 262 363 *~;
#X obj 291 254 r key4;
#N canvas 54 47 1166 678 led-control 0;
#X obj 226 241 r rec-en;
#X obj 587 294 i;
#X obj 600 268 r rec-en;
#X obj 345 105 i;
#X obj 369 60 r status;
#X obj 865 421 s oscOut;
#X obj 612 636 s oscOut;
#X obj 347 134 sel 0 1;
#X obj 110 301 i;
#X obj 73 405 sel 1 2 3 4 5, f 37;
#X obj 562 394 sel 1 2 3 4 5, f 39;
#X obj 583 321 t f b;
#X msg 866 400 send /ledall 0 40 0;
#X msg 556 456 send /led 1 100 0 0;
#X msg 618 494 send /led 2 100 0 0;
#X msg 689 525 send /led 3 100 0 0;
#X msg 765 557 send /led 4 100 0 0;
#X msg 829 587 send /led 5 100 0 0;
#X obj 110 329 t f b;
#X obj 342 426 s oscOut;
#X msg 343 405 send /ledall 0 0 0;
#X obj 197 648 s oscOut;
#X msg 75 467 send /led 1 50 0 50;
#X msg 137 505 send /led 2 50 0 50;
#X msg 208 536 send /led 3 50 0 50;
#X msg 284 568 send /led 4 50 0 50;
#X msg 348 598 send /led 5 50 0 50;
#X obj 221 61 r reled;
#N canvas 63 88 822 440 loop-flasher 0;
#X obj 123 127 r t1play;
#X obj 138 197 s oscOut;
#X obj 65 172 delay 50;
#X obj 65 197 s reled;
#X msg 138 171 send /led 1 100 100 100;
#X obj 218 285 s oscOut;
#X obj 145 260 delay 50;
#X obj 145 285 s reled;
#X obj 382 194 s oscOut;
#X obj 309 169 delay 50;
#X obj 309 194 s reled;
#X obj 447 306 s oscOut;
#X obj 374 281 delay 50;
#X obj 374 306 s reled;
#X obj 618 194 s oscOut;
#X obj 545 169 delay 50;
#X obj 545 194 s reled;
#X obj 367 124 r t2play;
#X obj 603 124 r t3play;
#X obj 203 215 r t4play;
#X obj 432 236 r t5play;
#X msg 382 168 send /led 2 100 100 100;
#X msg 618 168 send /led 3 100 100 100;
#X msg 218 259 send /led 4 100 100 100;
#X msg 447 280 send /led 5 100 100 100;
#X connect 0 0 4 0;
#X connect 0 0 2 0;
#X connect 2 0 3 0;
#X connect 4 0 1 0;
#X connect 6 0 7 0;
#X connect 9 0 10 0;
#X connect 12 0 13 0;
#X connect 15 0 16 0;
#X connect 17 0 21 0;
#X connect 17 0 9 0;
#X connect 18 0 22 0;
#X connect 18 0 15 0;
#X connect 19 0 23 0;
#X connect 19 0 6 0;
#X connect 20 0 24 0;
#X connect 20 0 12 0;
#X connect 21 0 8 0;
#X connect 22 0 14 0;
#X connect 23 0 5 0;
#X connect 24 0 11 0;
#X restore 550 41 pd loop-flasher;
#N canvas 152 25 843 725 vu 0;
#X obj 329 195 i;
#X obj 329 77 env~ 8192 4096;
#X obj 329 127 expr if($f1 >= 0 \, $f1 \, 0);
#X obj 329 103 - 60;
#X obj 329 150 / 40;
#X obj 374 588 s oscOut;
#X obj 136 202 sel 0 1;
#X obj 97 240 s reled, f 8;
#X obj 136 173 r key1, f 10;
#X obj 302 226 spigot;
#X obj 329 257 t f b;
#X msg 492 305 send /ledall 0 0 0;
#X obj 329 172 * 12;
#X obj 299 305 sel 0 1 2 3 4 5 6 7 8 9 10 11;
#X obj 323 46 r~ tovu;
#N canvas 208 233 450 300 bar6 0;
#X msg 102 78 send /led 2 0 100 0;
#X msg 133 105 send /led 3 0 100 0;
#X msg 160 133 send /led 4 50 60 0;
#X msg 64 57 send /led 1 0 100 0;
#X obj 180 15 inlet;
#X obj 158 220 outlet;
#X msg 198 159 send /led 5 100 0 0;
#X connect 0 0 5 0;
#X connect 1 0 5 0;
#X connect 2 0 5 0;
#X connect 3 0 5 0;
#X connect 4 0 3 0;
#X connect 4 0 0 0;
#X connect 4 0 1 0;
#X connect 4 0 2 0;
#X connect 4 0 6 0;
#X connect 6 0 5 0;
#X restore 388 487 pd bar6;
#X f 8;
#N canvas 208 233 450 300 bar1 0;
#X msg 64 57 send /led 1 0 100 0;
#X obj 180 15 inlet;
#X obj 158 220 outlet;
#X connect 0 0 2 0;
#X connect 1 0 0 0;
#X restore 267 362 pd bar1;
#X f 8;
#N canvas 208 233 450 300 bar2 0;
#X msg 102 78 send /led 2 0 100 0;
#X msg 64 57 send /led 1 0 100 0;
#X obj 180 15 inlet;
#X obj 158 220 outlet;
#X connect 0 0 3 0;
#X connect 1 0 3 0;
#X connect 2 0 1 0;
#X connect 2 0 0 0;
#X restore 285 388 pd bar2;
#X f 8;
#N canvas 208 233 450 300 bar3 0;
#X msg 102 78 send /led 2 0 100 0;
#X msg 133 105 send /led 3 0 100 0;
#X msg 64 57 send /led 1 0 100 0;
#X obj 180 15 inlet;
#X obj 158 220 outlet;
#X connect 0 0 4 0;
#X connect 1 0 4 0;
#X connect 2 0 4 0;
#X connect 3 0 2 0;
#X connect 3 0 0 0;
#X connect 3 0 1 0;
#X restore 309 415 pd bar3;
#X f 8;
#N canvas 208 233 450 300 bar4 0;
#X msg 102 78 send /led 2 0 100 0;
#X msg 133 105 send /led 3 0 100 0;
#X msg 160 133 send /led 4 50 60 0;
#X msg 64 57 send /led 1 0 100 0;
#X obj 180 15 inlet;
#X obj 158 220 outlet;
#X connect 0 0 5 0;
#X connect 1 0 5 0;
#X connect 2 0 5 0;
#X connect 3 0 5 0;
#X connect 4 0 3 0;
#X connect 4 0 0 0;
#X connect 4 0 1 0;
#X connect 4 0 2 0;
#X restore 333 437 pd bar4;
#X f 8;
#N canvas 208 233 450 300 bar5 0;
#X msg 102 78 send /led 2 0 100 0;
#X msg 133 105 send /led 3 0 100 0;
#X msg 160 133 send /led 4 50 60 0;
#X msg 64 57 send /led 1 0 100 0;
#X obj 180 15 inlet;
#X obj 158 220 outlet;
#X msg 198 159 send /led 5 50 60 0;
#X connect 0 0 5 0;
#X connect 1 0 5 0;
#X connect 2 0 5 0;
#X connect 3 0 5 0;
#X connect 4 0 3 0;
#X connect 4 0 0 0;
#X connect 4 0 1 0;
#X connect 4 0 2 0;
#X connect 4 0 6 0;
#X connect 6 0 5 0;
#X restore 357 462 pd bar5;
#X f 8;
#X connect 0 0 9 0;
#X connect 1 0 3 0;
#X connect 2 0 4 0;
#X connect 3 0 2 0;
#X connect 4 0 12 0;
#X connect 6 0 7 0;
#X connect 8 0 6 0;
#X connect 8 0 9 1;
#X connect 9 0 10 0;
#X connect 10 0 13 0;
#X connect 10 1 11 0;
#X connect 11 0 5 0;
#X connect 12 0 0 0;
#X connect 13 1 16 0;
#X connect 13 2 16 0;
#X connect 13 3 17 0;
#X connect 13 4 17 0;
#X connect 13 5 18 0;
#X connect 13 6 18 0;
#X connect 13 7 19 0;
#X connect 13 8 19 0;
#X connect 13 9 20 0;
#X connect 13 10 20 0;
#X connect 13 11 15 0;
#X connect 14 0 1 0;
#X connect 15 0 5 0;
#X connect 16 0 5 0;
#X connect 17 0 5 0;
#X connect 18 0 5 0;
#X connect 19 0 5 0;
#X connect 20 0 5 0;
#X restore 544 79 pd vu;
#X connect 0 0 8 1;
#X connect 1 0 11 0;
#X connect 2 0 1 1;
#X connect 3 0 7 0;
#X connect 4 0 3 1;
#X connect 7 0 8 0;
#X connect 7 1 1 0;
#X connect 8 0 18 0;
#X connect 9 0 22 0;
#X connect 9 1 23 0;
#X connect 9 2 24 0;
#X connect 9 3 25 0;
#X connect 9 4 26 0;
#X connect 10 0 13 0;
#X connect 10 1 14 0;
#X connect 10 2 15 0;
#X connect 10 3 16 0;
#X connect 10 4 17 0;
#X connect 11 0 10 0;
#X connect 11 1 12 0;
#X connect 12 0 5 0;
#X connect 13 0 6 0;
#X connect 14 0 6 0;
#X connect 15 0 6 0;
#X connect 16 0 6 0;
#X connect 17 0 6 0;
#X connect 18 0 9 0;
#X connect 18 1 20 0;
#X connect 20 0 19 0;
#X connect 22 0 21 0;
#X connect 23 0 21 0;
#X connect 24 0 21 0;
#X connect 25 0 21 0;
#X connect 26 0 21 0;
#X connect 27 0 3 0;
#X restore 171 120 pd led-control;
#X obj 373 325 *;
#X obj 373 298 t f f;
#X obj 373 353 sig~;
#X obj 373 378 lop~ 5;
#X obj 373 272 r knob6;
#X obj 274 428 *~;
#X obj 88 361 s~ tovu;
#N canvas 229 152 677 310 track-select 0;
#X obj 108 151 s rec-en;
#N canvas 156 97 959 619 sel-track 0;
#X obj 427 71 r status;
#X obj 426 93 ==;
#X obj 323 524 outlet;
#X obj 315 289 spigot 1;
#X obj 82 137 r key9;
#X obj 127 138 r key10;
#X obj 188 138 r key11;
#X obj 248 139 r key12;
#X obj 307 140 r key13;
#X obj 83 167 sel 1;
#X obj 135 168 sel 1;
#X obj 189 169 sel 1;
#X obj 247 170 sel 1;
#X obj 305 168 sel 1;
#X obj 332 381 v rec-en;
#X msg 82 198 1;
#X msg 127 198 2;
#X msg 189 199 3;
#X msg 248 196 4;
#X msg 305 201 5;
#X obj 310 408 ==;
#X obj 311 437 sel 0 1;
#X obj 305 355 t f b f;
#X obj 308 477 i;
#X obj 305 319 i;
#X msg 333 478 0;
#X connect 0 0 1 0;
#X connect 1 0 3 1;
#X connect 3 0 24 0;
#X connect 4 0 9 0;
#X connect 5 0 10 0;
#X connect 6 0 11 0;
#X connect 7 0 12 0;
#X connect 8 0 13 0;
#X connect 9 0 15 0;
#X connect 10 0 16 0;
#X connect 11 0 17 0;
#X connect 12 0 18 0;
#X connect 13 0 19 0;
#X connect 14 0 20 1;
#X connect 15 0 3 0;
#X connect 16 0 3 0;
#X connect 17 0 3 0;
#X connect 18 0 3 0;
#X connect 19 0 3 0;
#X connect 20 0 21 0;
#X connect 21 0 23 0;
#X connect 21 1 25 0;
#X connect 22 0 20 0;
#X connect 22 1 14 0;
#X connect 22 2 23 1;
#X connect 23 0 2 0;
#X connect 24 0 22 0;
#X connect 25 0 2 0;
#X restore 66 52 pd sel-track;
#X obj 74 99 t b f;
#X obj 54 154 s reled;
#X connect 1 0 2 0;
#X connect 2 0 3 0;
#X connect 2 1 0 0;
#X restore 171 144 pd track-select;
#N canvas 78 27 1179 760 song-select 0;
#X obj 626 210 + 1;
#X obj 67 219 - 1;
#X obj 624 234 expr if($f1 > $f2 \, 1 \, $f1);
#X obj 69 244 expr if($f1 < 1 \, $f2 \, $f1);
#X obj 67 193 v cursong;
#X obj 168 194 v totalsongs;
#X obj 703 187 v totalsongs;
#X obj 825 53 print cursong;
#X obj 89 32 r key6;
#X obj 625 32 r key8;
#X obj 89 58 sel 1;
#X obj 625 58 sel 1;
#X obj 626 188 v cursong;
#X obj 626 265 s cursong;
#X obj 73 270 s cursong;
#X obj 825 10 r cursong;
#X obj 184 135 s stop;
#X obj 713 138 s stop;
#X obj 396 26 r key7;
#X obj 395 52 sel 1;
#X obj 397 146 + 1;
#X obj 476 295 i;
#X obj 400 169 t f f;
#X obj 478 124 s stop;
#X obj 397 124 v totalsongs;
#X obj 439 354 s cursong;
#X obj 474 326 t f f;
#X obj 395 235 shell;
#X obj 502 354 s totalsongs;
#X obj 429 255 t b;
#X obj 94 87 t b b b b;
#X obj 400 86 t b b b;
#X obj 625 90 t b b b b;
#X obj 36 158 s play;
#X msg 394 201 mkdir /sdcard/songs/\$1;
#X connect 0 0 2 0;
#X connect 1 0 3 0;
#X connect 2 0 13 0;
#X connect 3 0 14 0;
#X connect 4 0 1 0;
#X connect 5 0 3 1;
#X connect 6 0 2 1;
#X connect 8 0 10 0;
#X connect 9 0 11 0;
#X connect 10 0 30 0;
#X connect 11 0 32 0;
#X connect 12 0 0 0;
#X connect 15 0 7 0;
#X connect 18 0 19 0;
#X connect 19 0 31 0;
#X connect 20 0 22 0;
#X connect 21 0 26 0;
#X connect 22 0 34 0;
#X connect 22 1 21 1;
#X connect 24 0 20 0;
#X connect 26 0 25 0;
#X connect 26 1 28 0;
#X connect 27 1 29 0;
#X connect 29 0 21 0;
#X connect 30 0 33 0;
#X connect 30 1 4 0;
#X connect 30 2 5 0;
#X connect 30 3 16 0;
#X connect 31 1 24 0;
#X connect 31 2 23 0;
#X connect 32 0 33 0;
#X connect 32 1 12 0;
#X connect 32 2 6 0;
#X connect 32 3 17 0;
#X connect 34 0 27 0;
#X restore 171 169 pd song-select;
#N canvas 63 88 703 328 init 0;
#X msg 316 171 1;
#N canvas 6 50 450 300 countsongs 0;
#X obj 111 119 folder_list;
#X obj 111 173 f 0;
#X obj 111 146 t b;
#X obj 146 172 + 1;
#X obj 111 199 t f f;
#X obj 93 51 t b b b;
#X obj 93 225 f;
#X msg 153 146 1;
#X obj 91 253 outlet;
#X obj 90 15 inlet;
#X obj 19 184 print f;
#X msg 111 80 symbol /sdcard/songs/*;
#X connect 0 0 2 0;
#X connect 0 0 10 0;
#X connect 1 0 4 0;
#X connect 2 0 1 0;
#X connect 3 0 1 1;
#X connect 4 0 6 1;
#X connect 4 1 3 0;
#X connect 5 0 6 0;
#X connect 5 1 11 0;
#X connect 5 2 7 0;
#X connect 6 0 8 0;
#X connect 7 0 1 1;
#X connect 9 0 5 0;
#X connect 11 0 0 0;
#X restore 391 152 pd countsongs;
#X obj 478 195 print numer-songs;
#X obj 316 196 s cursong;
#X obj 168 19 loadbang;
#X obj 217 167 s rec-en;
#X msg 219 142 0, f 5;
#X obj 335 118 t b b;
#X obj 389 195 s totalsongs;
#X msg 163 183 0, f 5;
#X obj 161 208 s status;
#X obj 97 210 s reled;
#X msg 60 126 \; pd dsp 1;
#X obj 168 46 t b b b b b b;
#X obj 424 104 s osc-init;
#X connect 0 0 3 0;
#X connect 1 0 2 0;
#X connect 1 0 8 0;
#X connect 4 0 13 0;
#X connect 6 0 5 0;
#X connect 7 0 0 0;
#X connect 7 1 1 0;
#X connect 9 0 10 0;
#X connect 13 0 12 0;
#X connect 13 1 11 0;
#X connect 13 2 9 0;
#X connect 13 3 6 0;
#X connect 13 4 7 0;
#X connect 13 5 14 0;
#X restore 172 39 pd init;
#N canvas 97 174 860 586 control 0;
#X obj 131 64 sel 1;
#X obj 133 125 sel 1 0;
#X obj 130 34 r key5, f 10;
#X obj 133 98 v status;
#X obj 133 296 s status;
#X msg 106 157 0;
#X obj 255 299 s reled;
#X obj 42 298 s reled;
#X obj 48 91 r stop;
#X obj 109 330 s rec-en;
#X obj 276 78 r play;
#X obj 185 154 delay 10;
#X obj 311 365 sel 0 1;
#X obj 397 362 sel 0 1;
#X obj 471 361 sel 0 1;
#X obj 556 368 sel 0 1;
#X obj 310 419 s t1play;
#X obj 398 417 s t2play;
#X obj 470 413 s t3play;
#X obj 558 414 s t4play;
#X obj 577 390 s t4rec;
#X obj 489 389 s t3rec;
#X obj 413 387 s t2rec;
#X obj 323 398 s t1rec;
#X obj 635 366 sel 0 1;
#X obj 654 392 s t5rec;
#X obj 637 416 s t5play;
#X obj 350 302 == 1;
#X obj 385 302 == 2;
#X obj 420 302 == 3;
#X obj 457 302 == 4;
#X obj 502 301 == 5;
#X obj 350 270 t f f f f f;
#X obj 350 244 v rec-en;
#X obj 233 201 t b b b;
#X obj 264 257 s status;
#X msg 263 235 1;
#X msg 133 266 0;
#X msg 97 271 0;
#X obj 105 181 t b b b b;
#X obj 154 222 s stop-all;
#X connect 0 0 3 0;
#X connect 1 0 5 0;
#X connect 1 1 11 0;
#X connect 2 0 0 0;
#X connect 3 0 1 0;
#X connect 5 0 39 0;
#X connect 8 0 5 0;
#X connect 10 0 11 0;
#X connect 11 0 34 0;
#X connect 12 0 16 0;
#X connect 12 1 23 0;
#X connect 13 0 17 0;
#X connect 13 1 22 0;
#X connect 14 0 18 0;
#X connect 14 1 21 0;
#X connect 15 0 19 0;
#X connect 15 1 20 0;
#X connect 24 0 26 0;
#X connect 24 1 25 0;
#X connect 27 0 12 0;
#X connect 28 0 13 0;
#X connect 29 0 14 0;
#X connect 30 0 15 0;
#X connect 31 0 24 0;
#X connect 32 0 27 0;
#X connect 32 1 28 0;
#X connect 32 2 29 0;
#X connect 32 3 30 0;
#X connect 32 4 31 0;
#X connect 33 0 32 0;
#X connect 34 0 6 0;
#X connect 34 1 36 0;
#X connect 34 2 33 0;
#X connect 36 0 35 0;
#X connect 37 0 4 0;
#X connect 38 0 9 0;
#X connect 39 0 7 0;
#X connect 39 1 38 0;
#X connect 39 2 37 0;
#X connect 39 3 40 0;
#X restore 171 94 pd control;
#X obj 107 517 r knob1;
#X obj 107 538 s t1_vol;
#X obj 167 517 r knob2;
#X obj 167 538 s t2_vol;
#X obj 233 517 r knob3;
#X obj 233 538 s t3_vol;
#X obj 293 517 r knob4;
#X obj 293 538 s t4_vol;
#X obj 352 517 r knob5;
#X obj 352 538 s t5_vol;
#N canvas 96 158 1032 516 osc 0;
#N canvas 313 299 485 364 oscio 0;
#X obj 95 174 packOSC;
#X obj 252 154 udpreceive;
#X obj 252 176 unpackOSC;
#X obj 252 204 s oscIn;
#X obj 95 149 r oscOut;
#X msg 70 119 connect localhost 4001;
#X msg 252 124 port 4000;
#X obj 70 247 s udp-connected;
#X obj 70 209 udpsend;
#X obj 181 30 r osc-init, f 11;
#X obj 167 229 print udp;
#X connect 0 0 8 0;
#X connect 1 0 2 0;
#X connect 2 0 3 0;
#X connect 4 0 0 0;
#X connect 5 0 8 0;
#X connect 6 0 1 0;
#X connect 8 0 7 0;
#X connect 8 0 10 0;
#X connect 9 0 5 0;
#X connect 9 0 6 0;
#X restore 53 19 pd oscio;
#X obj 49 107 r oscIn;
#X obj 183 273 s knob1;
#X obj 183 242 / 255;
#X obj 320 241 / 255;
#X obj 457 239 / 255;
#X obj 320 270 s knob2;
#X obj 457 268 s knob3;
#X obj 593 267 s knob4;
#X obj 593 237 / 255;
#X obj 730 236 / 255;
#X obj 863 233 / 255;
#X obj 730 266 s knob5;
#X obj 863 263 s knob6;
#X obj 53 395 s key1;
#X obj 164 398 s key3;
#X obj 107 395 s key2;
#X obj 217 399 s key4;
#X obj 272 400 s key5;
#X obj 324 407 s key6;
#X obj 378 401 s key7;
#X obj 433 409 s key8;
#X obj 47 155 routeOSC /key /knobs;
#X obj 183 200 unpack 0 0 0 0 0 0, f 98;
#X obj 53 307 route 0 1 2 3 4 5 6 7 12 11 10 9 8, f 101;
#X obj 492 404 s key9;
#X obj 548 402 s key10;
#X obj 607 401 s key11;
#X obj 663 402 s key12;
#X obj 729 403 s key13;
#X connect 1 0 22 0;
#X connect 3 0 2 0;
#X connect 4 0 6 0;
#X connect 5 0 7 0;
#X connect 9 0 8 0;
#X connect 10 0 12 0;
#X connect 11 0 13 0;
#X connect 22 0 24 0;
#X connect 22 1 23 0;
#X connect 23 0 3 0;
#X connect 23 1 4 0;
#X connect 23 2 5 0;
#X connect 23 3 9 0;
#X connect 23 4 10 0;
#X connect 23 5 11 0;
#X connect 24 0 14 0;
#X connect 24 1 16 0;
#X connect 24 2 15 0;
#X connect 24 3 17 0;
#X connect 24 4 18 0;
#X connect 24 5 19 0;
#X connect 24 6 20 0;
#X connect 24 7 21 0;
#X connect 24 8 25 0;
#X connect 24 9 26 0;
#X connect 24 10 27 0;
#X connect 24 11 28 0;
#X connect 24 12 29 0;
#X restore 171 65 pd osc;
#X obj 23 33 declare -path lib;
#N canvas 158 59 663 676 bounce-down 0;
#X obj 239 52 sel 1;
#X obj 241 146 + 1;
#X obj 288 285 i;
#X obj 244 169 t f f;
#X obj 244 86 t b b;
#X obj 322 124 s stop;
#X obj 241 124 v totalsongs;
#X obj 239 235 shell;
#X obj 265 258 t b;
#X obj 240 26 r key2;
#X msg 281 492 start;
#X msg 226 443 stop;
#X obj 232 585 writesf~ 1;
#X text 346 375 this ensures recorded track lines up with playing tracks
, f 23;
#X obj 106 506 r~ mainout;
#X obj 280 374 delay 15;
#X obj 307 351 s play;
#X obj 343 596 print bounce;
#X obj 292 310 t b b f f;
#X obj 359 350 s totalsongs;
#X obj 37 376 delay 100;
#X obj 36 400 s play;
#X obj 113 377 v totalsongs;
#X obj 110 251 v bounce-status;
#X obj 110 272 sel 1;
#X obj 110 301 t b b b b, f 14;
#X obj 162 350 v bounce-status;
#X msg 162 326 0;
#X obj 297 464 v bounce-status;
#X msg 297 440 1;
#X obj 283 410 t b b;
#X obj 113 398 s cursong;
#X msg 238 201 mkdir /sdcard/songs/\$1;
#X msg 365 517 open /sdcard/songs/\$1/1.wav;
#X obj 118 172 r stop-all;
#X obj 129 216 t b b;
#X obj 478 98 v bounce-status;
#X obj 475 44 loadbang;
#X msg 484 71 0;
#X connect 0 0 4 0;
#X connect 1 0 3 0;
#X connect 2 0 18 0;
#X connect 3 0 32 0;
#X connect 3 1 2 1;
#X connect 4 0 6 0;
#X connect 4 1 5 0;
#X connect 6 0 1 0;
#X connect 7 1 8 0;
#X connect 8 0 2 0;
#X connect 9 0 0 0;
#X connect 10 0 12 0;
#X connect 11 0 12 0;
#X connect 14 0 12 0;
#X connect 15 0 30 0;
#X connect 18 0 15 0;
#X connect 18 1 16 0;
#X connect 18 2 33 0;
#X connect 18 3 19 0;
#X connect 20 0 21 0;
#X connect 22 0 31 0;
#X connect 23 0 24 0;
#X connect 24 0 25 0;
#X connect 25 0 20 0;
#X connect 25 1 22 0;
#X connect 25 2 27 0;
#X connect 27 0 26 0;
#X connect 29 0 28 0;
#X connect 30 0 10 0;
#X connect 30 1 29 0;
#X connect 32 0 7 0;
#X connect 33 0 12 0;
#X connect 33 0 17 0;
#X connect 34 0 35 0;
#X connect 35 0 23 0;
#X connect 35 1 11 0;
#X connect 37 0 38 0;
#X connect 38 0 36 0;
#X restore 169 195 pd bounce-down;
#X obj 137 432 s~ mainout;
#N canvas 49 84 1234 702 hot-record 0;
#X obj 498 39 r status;
#X obj 155 30 r key9;
#X obj 200 31 r key10;
#X obj 261 31 r key11;
#X obj 321 32 r key12;
#X obj 380 33 r key13;
#X obj 156 60 sel 1;
#X obj 208 61 sel 1;
#X obj 262 62 sel 1;
#X obj 320 63 sel 1;
#X obj 378 61 sel 1;
#X msg 155 91 1;
#X msg 200 91 2;
#X msg 262 92 3;
#X msg 321 89 4;
#X msg 378 94 5;
#X obj 392 181 spigot 0;
#X obj 195 519 hotrecord 1;
#X obj 280 519 hotrecord 2;
#X obj 364 516 hotrecord 3;
#X obj 446 519 hotrecord 4;
#X obj 527 523 hotrecord 5;
#X obj 315 377 s rec-en;
#X obj 395 237 v rec-en;
#X obj 398 264 > 0;
#X obj 398 286 sel 0 1;
#X obj 265 330 i;
#X obj 264 351 t b f, f 9;
#X obj 391 213 t b f;
#X text 467 266 if a track recording \, stop it;
#X text 112 303 otherwise start it;
#X connect 0 0 16 1;
#X connect 1 0 6 0;
#X connect 2 0 7 0;
#X connect 3 0 8 0;
#X connect 4 0 9 0;
#X connect 5 0 10 0;
#X connect 6 0 11 0;
#X connect 7 0 12 0;
#X connect 8 0 13 0;
#X connect 9 0 14 0;
#X connect 10 0 15 0;
#X connect 11 0 16 0;
#X connect 12 0 16 0;
#X connect 13 0 16 0;
#X connect 14 0 16 0;
#X connect 15 0 16 0;
#X connect 16 0 28 0;
#X connect 23 0 24 0;
#X connect 24 0 25 0;
#X connect 25 0 26 0;
#X connect 25 1 17 1;
#X connect 25 1 18 1;
#X connect 25 1 19 1;
#X connect 25 1 20 1;
#X connect 25 1 21 1;
#X connect 26 0 27 0;
#X connect 27 0 17 0;
#X connect 27 0 18 0;
#X connect 27 0 19 0;
#X connect 27 0 20 0;
#X connect 27 0 21 0;
#X connect 27 1 22 0;
#X connect 28 0 23 0;
#X connect 28 1 26 1;
#X restore 276 144 pd hot-record;
#X connect 0 0 13 0;
#X connect 0 0 32 0;
#X connect 1 0 5 0;
#X connect 1 0 0 0;
#X connect 1 0 14 0;
#X connect 1 1 5 0;
#X connect 1 1 0 0;
#X connect 1 1 14 0;
#X connect 3 0 4 0;
#X connect 4 0 5 1;
#X connect 5 0 13 0;
#X connect 6 0 3 0;
#X connect 8 0 10 0;
#X connect 9 0 8 0;
#X connect 9 1 8 1;
#X connect 10 0 11 0;
#X connect 11 0 13 1;
#X connect 12 0 9 0;
#X connect 13 0 2 0;
#X connect 13 0 2 1;
#X connect 19 0 20 0;
#X connect 21 0 22 0;
#X connect 23 0 24 0;
#X connect 25 0 26 0;
#X connect 27 0 28 0;
