#N canvas 101 25 821 650 10;
#X declare -path lib;
#N canvas 174 61 819 572 track-it 0;
#X obj 331 461 outlet~;
#X obj 334 151 inlet~;
#X obj 213 290 track 1;
#X obj 267 290 track 2;
#X obj 320 289 track 3;
#X obj 375 290 track 4;
#X obj 430 289 track 5;
#X connect 1 0 2 0;
#X connect 1 0 3 0;
#X connect 1 0 6 0;
#X connect 1 0 5 0;
#X connect 1 0 4 0;
#X connect 2 0 0 0;
#X connect 3 0 0 0;
#X connect 4 0 0 0;
#X connect 5 0 0 0;
#X connect 6 0 0 0;
#X restore 163 362 pd track-it;
#X obj 170 255 adc~;
#X obj 272 467 dac~;
#X obj 286 281 sel 1;
#X obj 286 306 tgl 15 0 empty empty empty 17 7 0 10 #fcfcfc #000000
#000000 0 1;
#X obj 262 363 *~;
#X obj 286 255 r key4;
#X obj 353 308 *;
#X obj 353 281 t f f;
#X obj 353 336 sig~;
#X obj 353 361 lop~ 5;
#X obj 353 255 r knob6;
#X obj 274 428 *~;
#X obj 88 361 s~ tovu;
#N canvas 395 36 844 578 track-select 0;
#X obj 400 528 s rec-en;
#X obj 368 497 t b f;
#X obj 346 531 s reled;
#X obj 454 85 r status;
#X obj 395 200 spigot 1;
#X obj 162 48 r key9;
#X obj 207 49 r key10;
#X obj 268 49 r key11;
#X obj 328 50 r key12;
#X obj 387 51 r key13;
#X obj 163 78 sel 1;
#X obj 215 79 sel 1;
#X obj 269 80 sel 1;
#X obj 327 81 sel 1;
#X obj 385 79 sel 1;
#X obj 412 292 v rec-en;
#X msg 162 109 1;
#X msg 207 109 2;
#X msg 269 110 3;
#X msg 328 107 4;
#X msg 385 112 5;
#X obj 390 319 ==;
#X obj 391 348 sel 0 1;
#X obj 385 266 t f b f;
#X obj 388 388 i;
#X msg 413 389 0;
#X text 490 107 enabled a track only when stopped;
#X obj 453 107 == 0;
#X connect 1 0 2 0;
#X connect 1 1 0 0;
#X connect 3 0 27 0;
#X connect 4 0 23 0;
#X connect 5 0 10 0;
#X connect 6 0 11 0;
#X connect 7 0 12 0;
#X connect 8 0 13 0;
#X connect 9 0 14 0;
#X connect 10 0 16 0;
#X connect 11 0 17 0;
#X connect 12 0 18 0;
#X connect 13 0 19 0;
#X connect 14 0 20 0;
#X connect 15 0 21 1;
#X connect 16 0 4 0;
#X connect 17 0 4 0;
#X connect 18 0 4 0;
#X connect 19 0 4 0;
#X connect 20 0 4 0;
#X connect 21 0 22 0;
#X connect 22 0 24 0;
#X connect 22 1 25 0;
#X connect 23 0 21 0;
#X connect 23 1 15 0;
#X connect 23 2 24 1;
#X connect 24 0 1 0;
#X connect 25 0 1 0;
#X connect 27 0 4 1;
#X restore 139 115 pd track-select;
#N canvas 78 27 1141 512 song-select 0;
#X obj 664 207 + 1;
#X obj 123 226 - 1;
#X obj 662 231 expr if($f1 > $f2 \, 1 \, $f1);
#X obj 125 251 expr if($f1 < 1 \, $f2 \, $f1);
#X obj 123 200 v cursong;
#X obj 224 201 v totalsongs;
#X obj 741 184 v totalsongs;
#X obj 825 53 print cursong;
#X obj 89 32 r key6;
#X obj 663 29 r key8;
#X obj 89 58 sel 1;
#X obj 663 55 sel 1;
#X obj 664 185 v cursong;
#X obj 664 262 s cursong;
#X obj 129 277 s cursong;
#X obj 825 10 r cursong;
#X obj 240 142 s stop;
#X obj 751 135 s stop;
#X obj 396 26 r key7;
#X obj 395 52 sel 1;
#X obj 397 146 + 1;
#X obj 476 295 i;
#X obj 400 169 t f f;
#X obj 478 124 s stop;
#X obj 397 124 v totalsongs;
#X obj 439 354 s cursong;
#X obj 439 326 t f f;
#X obj 395 235 shell;
#X obj 502 354 s totalsongs;
#X obj 441 264 t b;
#X obj 94 87 t b b b b;
#X obj 400 86 t b b b;
#X obj 663 87 t b b b b;
#X obj 44 181 s play;
#X msg 394 201 mkdir /sdcard/songs/\$1;
#X obj 46 140 delay 100;
#X obj 611 168 s play;
#X obj 613 127 delay 100;
#X connect 0 0 2 0;
#X connect 1 0 3 0;
#X connect 2 0 13 0;
#X connect 3 0 14 0;
#X connect 4 0 1 0;
#X connect 5 0 3 1;
#X connect 6 0 2 1;
#X connect 8 0 10 0;
#X connect 9 0 11 0;
#X connect 10 0 30 0;
#X connect 11 0 32 0;
#X connect 12 0 0 0;
#X connect 15 0 7 0;
#X connect 18 0 19 0;
#X connect 19 0 31 0;
#X connect 20 0 22 0;
#X connect 21 0 26 0;
#X connect 22 0 34 0;
#X connect 22 1 21 1;
#X connect 24 0 20 0;
#X connect 26 0 25 0;
#X connect 26 1 28 0;
#X connect 27 1 29 0;
#X connect 29 0 21 0;
#X connect 30 0 35 0;
#X connect 30 1 4 0;
#X connect 30 2 5 0;
#X connect 30 3 16 0;
#X connect 31 1 24 0;
#X connect 31 2 23 0;
#X connect 32 0 37 0;
#X connect 32 1 12 0;
#X connect 32 2 6 0;
#X connect 32 3 17 0;
#X connect 34 0 27 0;
#X connect 35 0 33 0;
#X connect 37 0 36 0;
#X restore 139 139 pd song-select;
#N canvas 47 383 703 328 init 0;
#X msg 316 171 1;
#N canvas 6 50 450 300 countsongs 0;
#X obj 111 119 folder_list;
#X obj 111 173 f 0;
#X obj 111 146 t b;
#X obj 146 172 + 1;
#X obj 111 199 t f f;
#X obj 93 51 t b b b;
#X obj 93 225 f;
#X msg 153 146 1;
#X obj 91 253 outlet;
#X obj 90 15 inlet;
#X obj 19 184 print f;
#X msg 111 80 symbol /sdcard/songs/*;
#X connect 0 0 2 0;
#X connect 0 0 10 0;
#X connect 1 0 4 0;
#X connect 2 0 1 0;
#X connect 3 0 1 1;
#X connect 4 0 6 1;
#X connect 4 1 3 0;
#X connect 5 0 6 0;
#X connect 5 1 11 0;
#X connect 5 2 7 0;
#X connect 6 0 8 0;
#X connect 7 0 1 1;
#X connect 9 0 5 0;
#X connect 11 0 0 0;
#X restore 391 152 pd countsongs;
#X obj 478 195 print numer-songs;
#X obj 316 196 s cursong;
#X obj 168 19 loadbang;
#X obj 209 150 s rec-en;
#X msg 211 125 0, f 5;
#X obj 335 118 t b b;
#X obj 389 195 s totalsongs;
#X msg 194 205 0, f 5;
#X obj 192 230 s status;
#X obj 97 210 s reled;
#X msg 60 126 \; pd dsp 1;
#X obj 424 104 s osc-init;
#X obj 262 194 s busy;
#X msg 268 118 0;
#X obj 151 258 s loop-en;
#X msg 157 209 0;
#X obj 168 46 t b b b b b b b b;
#X connect 0 0 3 0;
#X connect 1 0 2 0;
#X connect 1 0 8 0;
#X connect 4 0 18 0;
#X connect 6 0 5 0;
#X connect 7 0 0 0;
#X connect 7 1 1 0;
#X connect 9 0 10 0;
#X connect 15 0 14 0;
#X connect 17 0 16 0;
#X connect 18 0 12 0;
#X connect 18 1 11 0;
#X connect 18 2 17 0;
#X connect 18 3 9 0;
#X connect 18 4 6 0;
#X connect 18 5 15 0;
#X connect 18 6 7 0;
#X connect 18 7 13 0;
#X restore 139 29 pd init;
#X obj 107 517 r knob1;
#X obj 107 538 s t1_vol;
#X obj 167 517 r knob2;
#X obj 167 538 s t2_vol;
#X obj 233 517 r knob3;
#X obj 233 538 s t3_vol;
#X obj 293 517 r knob4;
#X obj 293 538 s t4_vol;
#X obj 352 517 r knob5;
#X obj 352 538 s t5_vol;
#N canvas 96 158 1032 516 osc 0;
#N canvas 313 299 485 364 oscio 0;
#X obj 95 174 packOSC;
#X obj 252 154 udpreceive;
#X obj 252 176 unpackOSC;
#X obj 252 204 s oscIn;
#X obj 95 149 r oscOut;
#X msg 70 119 connect localhost 4001;
#X msg 252 124 port 4000;
#X obj 70 247 s udp-connected;
#X obj 70 209 udpsend;
#X obj 181 30 r osc-init, f 11;
#X obj 167 229 print udp;
#X connect 0 0 8 0;
#X connect 1 0 2 0;
#X connect 2 0 3 0;
#X connect 4 0 0 0;
#X connect 5 0 8 0;
#X connect 6 0 1 0;
#X connect 8 0 7 0;
#X connect 8 0 10 0;
#X connect 9 0 5 0;
#X connect 9 0 6 0;
#X restore 53 19 pd oscio;
#X obj 49 107 r oscIn;
#X obj 183 273 s knob1;
#X obj 183 242 / 255;
#X obj 320 241 / 255;
#X obj 457 239 / 255;
#X obj 320 270 s knob2;
#X obj 457 268 s knob3;
#X obj 593 267 s knob4;
#X obj 593 237 / 255;
#X obj 730 236 / 255;
#X obj 863 233 / 255;
#X obj 730 266 s knob5;
#X obj 863 263 s knob6;
#X obj 53 395 s key1;
#X obj 164 398 s key3;
#X obj 107 395 s key2;
#X obj 217 399 s key4;
#X obj 272 400 s key5;
#X obj 324 407 s key6;
#X obj 378 401 s key7;
#X obj 433 409 s key8;
#X obj 47 155 routeOSC /key /knobs;
#X obj 183 200 unpack 0 0 0 0 0 0, f 98;
#X obj 53 307 route 0 1 2 3 4 5 6 7 12 11 10 9 8, f 101;
#X obj 492 404 s key9;
#X obj 548 402 s key10;
#X obj 607 401 s key11;
#X obj 663 402 s key12;
#X obj 729 403 s key13;
#X connect 1 0 22 0;
#X connect 3 0 2 0;
#X connect 4 0 6 0;
#X connect 5 0 7 0;
#X connect 9 0 8 0;
#X connect 10 0 12 0;
#X connect 11 0 13 0;
#X connect 22 0 24 0;
#X connect 22 1 23 0;
#X connect 23 0 3 0;
#X connect 23 1 4 0;
#X connect 23 2 5 0;
#X connect 23 3 9 0;
#X connect 23 4 10 0;
#X connect 23 5 11 0;
#X connect 24 0 14 0;
#X connect 24 1 16 0;
#X connect 24 2 15 0;
#X connect 24 3 17 0;
#X connect 24 4 18 0;
#X connect 24 5 19 0;
#X connect 24 6 20 0;
#X connect 24 7 21 0;
#X connect 24 8 25 0;
#X connect 24 9 26 0;
#X connect 24 10 27 0;
#X connect 24 11 28 0;
#X connect 24 12 29 0;
#X restore 139 50 pd osc;
#X obj 27 29 declare -path lib;
#N canvas 176 43 1029 721 bounce-down 0;
#X obj 420 34 sel 1;
#X obj 472 205 + 1;
#X obj 519 344 i;
#X obj 475 228 t f f;
#X obj 654 157 s stop;
#X obj 472 183 v totalsongs;
#X obj 461 292 shell;
#X obj 501 317 t b;
#X obj 420 12 r key2;
#X msg 488 600 start;
#X msg 290 296 stop;
#X obj 439 667 writesf~ 1;
#X text 553 542 this ensures recorded track lines up with playing tracks
, f 23;
#X obj 313 588 r~ mainout;
#X obj 486 555 delay 15;
#X obj 550 678 print bounce;
#X obj 618 402 s totalsongs;
#X obj 100 394 delay 100;
#X obj 99 427 s play;
#X obj 141 349 v totalsongs;
#X obj 141 370 s cursong;
#X msg 469 260 mkdir /sdcard/songs/\$1;
#X msg 572 599 open /sdcard/songs/\$1/1.wav;
#X obj 139 165 r stop-bounce;
#X obj 220 302 s status;
#X obj 184 327 s rec-en;
#X msg 220 272 0;
#X msg 184 277 0;
#X obj 333 294 s stop-all;
#X obj 143 226 t b b b b b b;
#X obj 460 156 delay 100;
#N canvas 411 436 683 305 play-all 0;
#X obj 171 192 s t1play;
#X obj 259 190 s t2play;
#X obj 331 186 s t3play;
#X obj 419 187 s t4play;
#X obj 498 189 s t5play;
#X obj 211 17 inlet;
#X obj 215 100 t b b b b b, f 29;
#X connect 5 0 6 0;
#X connect 6 0 0 0;
#X connect 6 1 1 0;
#X connect 6 2 2 0;
#X connect 6 3 3 0;
#X connect 6 4 4 0;
#X restore 563 478 pd play-all;
#X obj 517 445 s reled;
#X obj 420 58 v status;
#X obj 420 80 sel 0 1 2;
#X msg 559 161 2;
#X obj 559 184 s status;
#X obj 476 127 t b b b;
#X obj 523 369 t b b b f f, f 16;
#X connect 0 0 33 0;
#X connect 1 0 3 0;
#X connect 2 0 38 0;
#X connect 3 0 21 0;
#X connect 3 1 2 1;
#X connect 5 0 1 0;
#X connect 6 1 7 0;
#X connect 7 0 2 0;
#X connect 8 0 0 0;
#X connect 9 0 11 0;
#X connect 10 0 11 0;
#X connect 13 0 11 0;
#X connect 14 0 9 0;
#X connect 17 0 18 0;
#X connect 19 0 20 0;
#X connect 21 0 6 0;
#X connect 22 0 11 0;
#X connect 22 0 15 0;
#X connect 23 0 29 0;
#X connect 26 0 24 0;
#X connect 27 0 25 0;
#X connect 29 0 17 0;
#X connect 29 1 19 0;
#X connect 29 2 27 0;
#X connect 29 3 26 0;
#X connect 29 4 10 0;
#X connect 29 5 28 0;
#X connect 30 0 5 0;
#X connect 33 0 34 0;
#X connect 34 0 37 0;
#X connect 34 1 37 0;
#X connect 34 2 29 0;
#X connect 35 0 36 0;
#X connect 37 0 30 0;
#X connect 37 1 35 0;
#X connect 37 2 4 0;
#X connect 38 0 14 0;
#X connect 38 1 32 0;
#X connect 38 2 31 0;
#X connect 38 3 22 0;
#X connect 38 4 16 0;
#X restore 139 162 pd bounce-down;
#X obj 137 432 s~ mainout;
#N canvas 87 81 906 559 hot-record 0;
#X obj 498 39 r status;
#X obj 155 30 r key9;
#X obj 200 31 r key10;
#X obj 261 31 r key11;
#X obj 321 32 r key12;
#X obj 380 33 r key13;
#X obj 156 60 sel 1;
#X obj 208 61 sel 1;
#X obj 262 62 sel 1;
#X obj 320 63 sel 1;
#X obj 378 61 sel 1;
#X msg 155 91 1;
#X msg 200 91 2;
#X msg 262 92 3;
#X msg 321 89 4;
#X msg 378 94 5;
#X obj 392 181 spigot 0;
#X obj 477 452 s rec-en;
#X obj 394 265 v rec-en;
#X obj 397 292 > 0;
#X obj 397 314 sel 0 1;
#X obj 427 405 i;
#X obj 426 426 t b f, f 9;
#X obj 390 241 t b f;
#X text 454 316 if a track recording \, stop it;
#X text 293 426 otherwise start it;
#X obj 468 98 == 1;
#X obj 426 478 s stop-playing-and-record;
#X obj 425 352 s stop-recording-and-play;
#X obj 476 174 r loop-en;
#X obj 392 213 spigot 0;
#X text 481 220 only do it when looping;
#X text 508 99 if running;
#X connect 0 0 26 0;
#X connect 1 0 6 0;
#X connect 2 0 7 0;
#X connect 3 0 8 0;
#X connect 4 0 9 0;
#X connect 5 0 10 0;
#X connect 6 0 11 0;
#X connect 7 0 12 0;
#X connect 8 0 13 0;
#X connect 9 0 14 0;
#X connect 10 0 15 0;
#X connect 11 0 16 0;
#X connect 12 0 16 0;
#X connect 13 0 16 0;
#X connect 14 0 16 0;
#X connect 15 0 16 0;
#X connect 16 0 30 0;
#X connect 18 0 19 0;
#X connect 19 0 20 0;
#X connect 20 0 21 0;
#X connect 20 1 28 0;
#X connect 21 0 22 0;
#X connect 22 0 27 0;
#X connect 22 1 17 0;
#X connect 23 0 18 0;
#X connect 23 1 21 1;
#X connect 26 0 16 1;
#X connect 29 0 30 1;
#X connect 30 0 23 0;
#X restore 139 185 pd hot-record;
#N canvas 47 220 1248 439 leds 1;
#X obj 186 52 r reled;
#N canvas 63 88 822 440 loop-flasher 0;
#X obj 110 95 r t1play;
#X obj 65 172 delay 50;
#X obj 65 197 s reled;
#X obj 177 306 delay 50;
#X obj 177 331 s reled;
#X obj 336 184 delay 50;
#X obj 336 209 s reled;
#X obj 406 327 delay 50;
#X obj 406 352 s reled;
#X obj 572 184 delay 50;
#X obj 572 209 s reled;
#X obj 361 105 r t2play;
#X obj 603 113 r t3play;
#X obj 210 236 r t4play;
#X obj 431 252 r t5play;
#X msg 138 171 100 100 100;
#X msg 409 183 100 100 100;
#X msg 645 183 100 100 100;
#X msg 250 305 100 100 100;
#X msg 479 326 100 100 100;
#X obj 88 124 t b b b;
#X obj 105 151 s led-flip;
#X obj 360 132 t b b b;
#X obj 603 137 t b b b, f 9;
#X obj 206 260 t b b b, f 9;
#X obj 430 277 t b b b, f 9;
#X obj 374 158 s led-flip;
#X obj 622 162 s led-flip;
#X obj 228 284 s led-flip;
#X obj 454 303 s led-flip;
#X obj 138 197 s led1-set;
#X obj 409 209 s led2-set;
#X obj 645 209 s led3-set;
#X obj 250 331 s led4-set;
#X obj 479 352 s led5-set;
#X connect 0 0 20 0;
#X connect 1 0 2 0;
#X connect 3 0 4 0;
#X connect 5 0 6 0;
#X connect 7 0 8 0;
#X connect 9 0 10 0;
#X connect 11 0 22 0;
#X connect 12 0 23 0;
#X connect 13 0 24 0;
#X connect 14 0 25 0;
#X connect 15 0 30 0;
#X connect 16 0 31 0;
#X connect 17 0 32 0;
#X connect 18 0 33 0;
#X connect 19 0 34 0;
#X connect 20 0 1 0;
#X connect 20 1 21 0;
#X connect 20 2 15 0;
#X connect 22 0 5 0;
#X connect 22 1 26 0;
#X connect 22 2 16 0;
#X connect 23 0 9 0;
#X connect 23 1 27 0;
#X connect 23 2 17 0;
#X connect 24 0 3 0;
#X connect 24 1 28 0;
#X connect 24 2 18 0;
#X connect 25 0 7 0;
#X connect 25 1 29 0;
#X connect 25 2 19 0;
#X restore 484 69 pd loop-flasher;
#N canvas 152 25 843 725 vu 0;
#X obj 329 195 i;
#X obj 329 77 env~ 8192 4096;
#X obj 329 127 expr if($f1 >= 0 \, $f1 \, 0);
#X obj 329 103 - 60;
#X obj 329 150 / 40;
#X obj 136 202 sel 0 1;
#X obj 97 240 s reled, f 8;
#X obj 136 173 r key1, f 10;
#X obj 302 226 spigot;
#X obj 329 172 * 12;
#X obj 299 305 sel 0 1 2 3 4 5 6 7 8 9 10 11;
#X obj 323 46 r~ tovu;
#N canvas 208 233 450 300 bar6 0;
#X obj 180 15 inlet;
#X msg 64 57 0 100 0;
#X msg 102 78 0 100 0;
#X msg 133 105 0 100 0;
#X msg 160 133 50 60 0;
#X msg 198 159 100 0 0;
#X obj 63 115 s led1-set;
#X obj 100 140 s led2-set;
#X obj 138 184 s led3-set;
#X obj 178 224 s led4-set;
#X obj 216 254 s led5-set;
#X connect 0 0 1 0;
#X connect 0 0 2 0;
#X connect 0 0 3 0;
#X connect 0 0 4 0;
#X connect 0 0 5 0;
#X connect 1 0 6 0;
#X connect 2 0 7 0;
#X connect 3 0 8 0;
#X connect 4 0 9 0;
#X connect 5 0 10 0;
#X restore 388 487 pd bar6;
#X f 8;
#N canvas 208 233 450 300 bar1 0;
#X obj 192 83 inlet;
#X msg 194 127 0 100 0;
#X obj 201 164 s led1-set;
#X connect 0 0 1 0;
#X connect 1 0 2 0;
#X restore 267 362 pd bar1;
#X f 8;
#N canvas 208 233 450 300 bar5 0;
#X obj 180 15 inlet;
#X msg 64 57 0 100 0;
#X msg 102 78 0 100 0;
#X msg 133 105 0 100 0;
#X msg 160 133 50 60 0;
#X msg 198 159 50 60 0;
#X obj 63 115 s led1-set;
#X obj 100 140 s led2-set;
#X obj 138 184 s led3-set;
#X obj 178 224 s led4-set;
#X obj 216 254 s led5-set;
#X connect 0 0 1 0;
#X connect 0 0 2 0;
#X connect 0 0 3 0;
#X connect 0 0 4 0;
#X connect 0 0 5 0;
#X connect 1 0 6 0;
#X connect 2 0 7 0;
#X connect 3 0 8 0;
#X connect 4 0 9 0;
#X connect 5 0 10 0;
#X restore 347 463 pd bar5;
#X f 8;
#N canvas 208 233 450 300 bar4 0;
#X obj 180 15 inlet;
#X msg 64 57 0 100 0;
#X msg 102 78 0 100 0;
#X msg 133 105 0 100 0;
#X msg 160 133 50 60 0;
#X obj 63 115 s led1-set;
#X obj 100 140 s led2-set;
#X obj 138 184 s led3-set;
#X obj 178 224 s led4-set;
#X connect 0 0 1 0;
#X connect 0 0 2 0;
#X connect 0 0 3 0;
#X connect 0 0 4 0;
#X connect 1 0 5 0;
#X connect 2 0 6 0;
#X connect 3 0 7 0;
#X connect 4 0 8 0;
#X restore 327 441 pd bar4;
#X f 8;
#N canvas 208 233 450 300 bar3 0;
#X obj 180 15 inlet;
#X msg 64 57 0 100 0;
#X msg 102 78 0 100 0;
#X msg 133 105 0 100 0;
#X obj 63 115 s led1-set;
#X obj 100 140 s led2-set;
#X obj 137 184 s led3-set;
#X connect 0 0 1 0;
#X connect 0 0 2 0;
#X connect 0 0 3 0;
#X connect 1 0 4 0;
#X connect 2 0 5 0;
#X connect 3 0 6 0;
#X restore 306 407 pd bar3;
#X f 8;
#N canvas 208 233 450 300 bar2 0;
#X obj 180 15 inlet;
#X msg 122 82 0 100 0;
#X msg 193 91 0 100 0;
#X obj 121 140 s led1-set;
#X obj 191 153 s led2-set;
#X connect 0 0 1 0;
#X connect 0 0 2 0;
#X connect 1 0 3 0;
#X connect 2 0 4 0;
#X restore 285 381 pd bar2;
#X f 8;
#X obj 504 338 s ledall;
#X msg 492 305 0 0 0;
#X obj 329 257 t b f b;
#X obj 225 306 s led-flip;
#X connect 0 0 8 0;
#X connect 1 0 3 0;
#X connect 2 0 4 0;
#X connect 3 0 2 0;
#X connect 4 0 9 0;
#X connect 5 0 6 0;
#X connect 7 0 5 0;
#X connect 7 0 8 1;
#X connect 8 0 20 0;
#X connect 9 0 0 0;
#X connect 10 1 13 0;
#X connect 10 2 13 0;
#X connect 10 3 17 0;
#X connect 10 4 17 0;
#X connect 10 5 16 0;
#X connect 10 6 16 0;
#X connect 10 7 15 0;
#X connect 10 8 15 0;
#X connect 10 9 14 0;
#X connect 10 10 14 0;
#X connect 10 11 12 0;
#X connect 11 0 1 0;
#X connect 19 0 18 0;
#X connect 20 0 21 0;
#X connect 20 1 10 0;
#X connect 20 2 19 0;
#X restore 484 90 pd vu;
#X obj 685 44 array define led1 3;
#X obj 685 66 array define led2 3;
#X obj 685 89 array define led3 3;
#X obj 685 111 array define led4 3;
#X obj 685 134 array define led5 3;
#X obj 218 134 sel 0 1 2;
#X obj 218 105 v status;
#N canvas 563 286 747 499 stopped-leds 0;
#X obj 132 189 sel 1 2 3 4 5, f 37;
#X obj 169 113 t f b;
#X obj 148 38 inlet;
#X obj 169 85 v rec-en;
#X obj 401 210 s ledall;
#X msg 402 189 0 0 0;
#X msg 134 251 50 0 50;
#X msg 196 289 50 0 50;
#X msg 267 320 50 0 50;
#X msg 343 352 50 0 50;
#X msg 407 382 50 0 50;
#X obj 118 286 s led1-set;
#X obj 197 313 s led2-set;
#X obj 268 344 s led3-set;
#X obj 328 389 s led4-set;
#X obj 407 402 s led5-set;
#X connect 0 0 6 0;
#X connect 0 1 7 0;
#X connect 0 2 8 0;
#X connect 0 3 9 0;
#X connect 0 4 10 0;
#X connect 1 0 0 0;
#X connect 1 1 5 0;
#X connect 2 0 3 0;
#X connect 3 0 1 0;
#X connect 5 0 4 0;
#X connect 6 0 11 0;
#X connect 7 0 12 0;
#X connect 8 0 13 0;
#X connect 9 0 14 0;
#X connect 10 0 15 0;
#X restore 103 206 pd stopped-leds;
#N canvas 130 99 1040 506 playing-leds 0;
#X obj 46 157 sel 1 2 3 4 5, f 39;
#X obj 148 28 inlet;
#X obj 148 53 v rec-en;
#X msg 20 286 30 0 0;
#X msg 89 328 30 0 0;
#X msg 160 357 30 0 0;
#X msg 236 389 30 0 0;
#X msg 300 419 30 0 0;
#X obj 658 162 s ledall;
#X obj 17 315 s led1-set;
#X obj 89 360 s led2-set;
#X obj 164 398 s led3-set;
#X obj 231 434 s led4-set;
#X obj 305 458 s led5-set;
#X msg 372 281 0 5 5;
#X msg 659 141 0 0 0;
#X obj 148 80 t f b b, f 19;
#X msg 390 305 0 40 0;
#X obj 466 152 t b b b b b;
#X msg 442 281 0 5 5;
#X msg 460 305 0 40 0;
#X msg 510 280 0 5 5;
#X msg 528 304 0 40 0;
#X msg 580 280 0 5 5;
#X msg 598 304 0 40 0;
#X msg 648 279 0 5 5;
#X msg 666 303 0 40 0;
#X obj 382 345 s led1-set;
#X obj 452 345 s led2-set;
#X obj 520 344 s led3-set;
#X obj 590 344 s led4-set;
#X obj 658 343 s led5-set;
#X obj 369 253 sel 0 1 2;
#X obj 439 253 sel 0 1 2;
#X obj 507 252 sel 0 1 2;
#X obj 577 252 sel 0 1 2;
#X obj 645 251 sel 0 1 2;
#X obj 369 223 v t1status;
#X obj 439 223 v t2status;
#X obj 507 222 v t3status;
#X obj 577 222 v t4status;
#X obj 645 221 v t5status;
#X text 734 223 if status is no file (0) or done playing (2) show the
teal led, f 27;
#X connect 0 0 3 0;
#X connect 0 1 4 0;
#X connect 0 2 5 0;
#X connect 0 3 6 0;
#X connect 0 4 7 0;
#X connect 1 0 2 0;
#X connect 2 0 16 0;
#X connect 3 0 9 0;
#X connect 4 0 10 0;
#X connect 5 0 11 0;
#X connect 6 0 12 0;
#X connect 7 0 13 0;
#X connect 14 0 27 0;
#X connect 15 0 8 0;
#X connect 16 0 0 0;
#X connect 16 1 18 0;
#X connect 16 2 15 0;
#X connect 17 0 27 0;
#X connect 18 0 37 0;
#X connect 18 1 38 0;
#X connect 18 2 39 0;
#X connect 18 3 40 0;
#X connect 18 4 41 0;
#X connect 19 0 28 0;
#X connect 20 0 28 0;
#X connect 21 0 29 0;
#X connect 22 0 29 0;
#X connect 23 0 30 0;
#X connect 24 0 30 0;
#X connect 25 0 31 0;
#X connect 26 0 31 0;
#X connect 32 0 14 0;
#X connect 32 1 17 0;
#X connect 32 2 14 0;
#X connect 33 0 19 0;
#X connect 33 1 20 0;
#X connect 33 2 19 0;
#X connect 34 0 21 0;
#X connect 34 1 22 0;
#X connect 34 2 21 0;
#X connect 35 0 23 0;
#X connect 35 1 24 0;
#X connect 35 2 23 0;
#X connect 36 0 25 0;
#X connect 36 1 26 0;
#X connect 36 2 25 0;
#X connect 37 0 32 0;
#X connect 38 0 33 0;
#X connect 39 0 34 0;
#X connect 40 0 35 0;
#X connect 41 0 36 0;
#X restore 246 207 pd playing-leds;
#N canvas 418 252 424 289 bouncing-leds 1;
#X obj 124 59 inlet;
#X obj 132 131 s ledall;
#X msg 133 110 40 30 0;
#X connect 0 0 2 0;
#X connect 2 0 1 0;
#X restore 372 210 pd bouncing-leds;
#N canvas 128 142 991 503 test 0;
#X obj 376 314 s oscOut;
#X msg 377 293 send /leds \$1 \$2 \$3 \$4 \$5 \$6 \$7 \$8 \$9 \$10
\$11 \$12 \$13 \$14 \$15, f 65;
#X obj 385 254 pack 0 0 0 0 0 0 0 0 0 0 0 0 0 0 0;
#X obj 385 161 random 255;
#X obj 454 161 random 255;
#X obj 522 161 random 255;
#X obj 589 161 random 255;
#X obj 658 161 random 255;
#X obj 400 184 random 255;
#X obj 469 184 random 255;
#X obj 537 184 random 255;
#X obj 604 184 random 255;
#X obj 673 184 random 255;
#X obj 425 207 random 255;
#X obj 494 207 random 255;
#X obj 562 207 random 255;
#X obj 629 207 random 255;
#X obj 696 207 random 255;
#X obj 384 89 t b b b b b b b b b b b b b b b, f 53;
#X obj 368 43 metro 250;
#X connect 1 0 0 0;
#X connect 2 0 1 0;
#X connect 3 0 2 0;
#X connect 4 0 2 3;
#X connect 5 0 2 6;
#X connect 6 0 2 9;
#X connect 7 0 2 12;
#X connect 8 0 2 1;
#X connect 9 0 2 4;
#X connect 10 0 2 7;
#X connect 11 0 2 10;
#X connect 12 0 2 13;
#X connect 13 0 2 2;
#X connect 14 0 2 5;
#X connect 15 0 2 8;
#X connect 16 0 2 11;
#X connect 17 0 2 14;
#X connect 18 0 3 0;
#X connect 18 1 8 0;
#X connect 18 2 13 0;
#X connect 18 3 4 0;
#X connect 18 4 9 0;
#X connect 18 5 14 0;
#X connect 18 6 5 0;
#X connect 18 7 10 0;
#X connect 18 8 15 0;
#X connect 18 9 6 0;
#X connect 18 10 11 0;
#X connect 18 11 16 0;
#X connect 18 12 7 0;
#X connect 18 13 12 0;
#X connect 18 14 17 0;
#X restore 486 48 pd test;
#X obj 811 175 r led-flip;
#X obj 654 259 array get led1;
#X obj 811 196 t b b b b b;
#X obj 752 260 array get led2;
#X obj 854 259 array get led3;
#X obj 951 259 array get led4;
#X obj 1047 260 array get led5;
#X obj 653 286 unpack 0 0 0;
#X obj 752 286 unpack 0 0 0;
#X obj 854 285 unpack 0 0 0;
#X obj 951 285 unpack 0 0 0;
#X obj 1047 284 unpack 0 0 0;
#X obj 652 318 pack 0 0 0 0 0 0 0 0 0 0 0 0 0 0 0, f 78;
#X obj 650 363 s oscOut;
#X msg 651 342 send /leds \$1 \$2 \$3 \$4 \$5 \$6 \$7 \$8 \$9 \$10
\$11 \$12 \$13 \$14 \$15, f 65;
#X obj 186 76 t b b;
#X obj 143 108 s led-flip;
#N canvas 585 39 450 300 ledall 0;
#X obj 64 37 r ledall;
#X obj 64 65 t a a a a a, f 32;
#X obj 27 110 s led1-set;
#X obj 102 109 s led2-set;
#X obj 177 116 s led3-set;
#X obj 254 113 s led4-set;
#X obj 331 115 s led5-set;
#X connect 0 0 1 0;
#X connect 1 0 2 0;
#X connect 1 1 3 0;
#X connect 1 2 4 0;
#X connect 1 3 5 0;
#X connect 1 4 6 0;
#X restore 827 58 pd ledall;
#X obj 926 71 array set led1;
#X obj 926 48 r led1-set;
#X obj 927 90 r led2-set;
#X obj 927 113 array set led2;
#X obj 926 134 r led3-set;
#X obj 926 157 array set led3;
#X obj 1021 47 r led4-set;
#X obj 1021 70 array set led4;
#X obj 1024 89 r led5-set;
#X obj 1024 112 array set led5;
#X obj 44 385 s led1-set;
#X obj 23 350 s led-flip;
#X obj 37 318 t b b;
#X obj 137 349 s led-flip;
#X obj 151 317 t b b;
#X obj 247 350 s led-flip;
#X obj 261 318 t b b;
#X obj 362 349 s led-flip;
#X obj 376 317 t b b;
#X obj 478 349 s led-flip;
#X obj 492 316 t b b;
#X obj 158 384 s led2-set;
#X obj 268 385 s led3-set;
#X obj 383 384 s led4-set;
#X obj 499 384 s led5-set;
#X msg 208 349 0 5 5;
#X msg 94 350 0 5 5;
#X msg 318 350 0 5 5;
#X msg 433 349 0 5 5;
#X msg 549 349 0 5 5;
#X obj 38 262 r t1status;
#X obj 152 268 r t2status;
#X obj 262 269 r t3status;
#X obj 377 269 r t4status;
#X obj 493 270 r t5status;
#X obj 35 289 sel 2;
#X obj 149 293 sel 2;
#X obj 262 292 sel 2;
#X obj 379 290 sel 2;
#X obj 490 291 sel 2;
#X text 211 245 change led color when finished playing;
#X connect 0 0 29 0;
#X connect 8 0 10 0;
#X connect 8 1 11 0;
#X connect 8 2 12 0;
#X connect 9 0 8 0;
#X connect 14 0 16 0;
#X connect 15 0 21 0;
#X connect 16 0 15 0;
#X connect 16 1 17 0;
#X connect 16 2 18 0;
#X connect 16 3 19 0;
#X connect 16 4 20 0;
#X connect 17 0 22 0;
#X connect 18 0 23 0;
#X connect 19 0 24 0;
#X connect 20 0 25 0;
#X connect 21 0 26 0;
#X connect 21 1 26 1;
#X connect 21 2 26 2;
#X connect 22 0 26 3;
#X connect 22 1 26 4;
#X connect 22 2 26 5;
#X connect 23 0 26 6;
#X connect 23 1 26 7;
#X connect 23 2 26 8;
#X connect 24 0 26 9;
#X connect 24 1 26 10;
#X connect 24 2 26 11;
#X connect 25 0 26 12;
#X connect 25 1 26 13;
#X connect 25 2 26 14;
#X connect 26 0 28 0;
#X connect 28 0 27 0;
#X connect 29 0 30 0;
#X connect 29 1 9 0;
#X connect 33 0 32 0;
#X connect 34 0 35 0;
#X connect 36 0 37 0;
#X connect 38 0 39 0;
#X connect 40 0 41 0;
#X connect 44 0 43 0;
#X connect 44 1 58 0;
#X connect 46 0 45 0;
#X connect 46 1 57 0;
#X connect 48 0 47 0;
#X connect 48 1 59 0;
#X connect 50 0 49 0;
#X connect 50 1 60 0;
#X connect 52 0 51 0;
#X connect 52 1 61 0;
#X connect 57 0 53 0;
#X connect 58 0 42 0;
#X connect 59 0 54 0;
#X connect 60 0 55 0;
#X connect 61 0 56 0;
#X connect 62 0 67 0;
#X connect 63 0 68 0;
#X connect 64 0 69 0;
#X connect 65 0 70 0;
#X connect 66 0 71 0;
#X connect 67 0 44 0;
#X connect 68 0 46 0;
#X connect 69 0 48 0;
#X connect 70 0 50 0;
#X connect 71 0 52 0;
#X restore 139 72 pd leds;
#N canvas 97 174 860 586 play-stop 0;
#X obj 131 64 sel 1;
#X obj 130 34 r key5, f 10;
#X obj 133 98 v status;
#X obj 130 335 s status;
#X obj 239 282 s reled;
#X obj 39 337 s reled;
#X obj 48 91 r stop;
#X obj 94 360 s rec-en;
#X obj 276 78 r play;
#X obj 233 201 t b b b;
#X obj 264 257 s status;
#X msg 263 235 1;
#X msg 130 305 0;
#X msg 94 310 0;
#X obj 102 220 t b b b b;
#X obj 155 251 s stop-all;
#X obj 133 125 sel 1 2 0;
#X obj 132 189 s stop-bounce;
#X obj 390 285 s start-all;
#X connect 0 0 2 0;
#X connect 1 0 0 0;
#X connect 2 0 16 0;
#X connect 6 0 14 0;
#X connect 8 0 9 0;
#X connect 9 0 4 0;
#X connect 9 1 11 0;
#X connect 9 2 18 0;
#X connect 11 0 10 0;
#X connect 12 0 3 0;
#X connect 13 0 7 0;
#X connect 14 0 5 0;
#X connect 14 1 13 0;
#X connect 14 2 12 0;
#X connect 14 3 15 0;
#X connect 16 0 14 0;
#X connect 16 1 17 0;
#X connect 16 2 9 0;
#X restore 139 94 pd play-stop;
#X obj 342 39 v rec-en;
#X obj 342 65 v status;
#X obj 342 91 v totalsongs;
#X obj 342 116 v cursong;
#X obj 342 143 v loop-en;
#X text 402 37 0 = nothing enabled \, 1-5 tracks enabled;
#X text 407 142 0 = disabled \, 1 = disabled;
#X obj 341 167 r busy;
#X text 390 165 a bang when a file io happend \, control should block
;
#X text 390 181 right now this isn't really used \, we just make sure
to delay 100 between stop and play, f 51;
#X text 401 66 0 = stopped \, 1 = running \, 2 = overdubbing;
#X obj 1061 536 r loop-en;
#N canvas 121 146 584 290 loop-enable 0;
#X obj 157 39 r key3;
#X obj 171 154 tgl 15 0 empty empty empty 17 7 0 10 #fcfcfc #000000
#000000 0 1;
#X obj 171 174 s loop-en;
#X obj 155 68 sel 1;
#X obj 217 52 r status;
#X obj 172 108 spigot 0;
#X obj 214 81 == 0;
#X text 268 85 only allow change when stopped;
#X connect 0 0 3 0;
#X connect 1 0 2 0;
#X connect 3 0 5 0;
#X connect 4 0 6 0;
#X connect 5 0 1 0;
#X connect 6 0 5 1;
#X restore 139 207 pd loop-enable;
#X connect 0 0 12 0;
#X connect 0 0 30 0;
#X connect 1 0 5 0;
#X connect 1 0 0 0;
#X connect 1 0 13 0;
#X connect 1 1 5 0;
#X connect 1 1 0 0;
#X connect 1 1 13 0;
#X connect 3 0 4 0;
#X connect 4 0 5 1;
#X connect 5 0 12 0;
#X connect 6 0 3 0;
#X connect 7 0 9 0;
#X connect 8 0 7 0;
#X connect 8 1 7 1;
#X connect 9 0 10 0;
#X connect 10 0 12 1;
#X connect 11 0 8 0;
#X connect 12 0 2 0;
#X connect 12 0 2 1;
#X connect 17 0 18 0;
#X connect 19 0 20 0;
#X connect 21 0 22 0;
#X connect 23 0 24 0;
#X connect 25 0 26 0;
